<?xml version="1.0" encoding="UTF-8"?>
<!DOCTYPE svg PUBLIC "-//W3C//DTD SVG 1.1//EN" "http://www.w3.org/Graphics/SVG/1.1/DTD/svg11.dtd">
<!-- Creator: CorelDRAW 2018 (64-Bit) -->
<svg xmlns="http://www.w3.org/2000/svg" xml:space="preserve" width="2000px" height="1000px" version="1.1" style="shape-rendering:geometricPrecision; text-rendering:geometricPrecision; image-rendering:optimizeQuality; fill-rule:evenodd; clip-rule:evenodd"
viewBox="0 0 2000 1000"
 xmlns:xlink="http://www.w3.org/1999/xlink">
 <defs>
  <style type="text/css">
   <![CDATA[
    .str0 {stroke:white;stroke-width:4;stroke-miterlimit:22.9256}
    .fil0 {fill:none;fill-rule:nonzero}
   ]]>
  </style>
 </defs>
 <g id="Layer_x0020_1">
  <metadata id="CorelCorpID_0Corel-Layer"/>
  <path class="fil0 str0" d="M221.76 23.57l56.45 0 88.89 356.55 -64.97 0 -18.96 -75.98 -141.11 0 -40.64 75.98 -72 0 192.34 -356.55zm45.19 217.51l-28.64 -116.86 -62.48 116.86 91.12 0z"/>
  <path id="1" class="fil0 str0" d="M647.25 116.44l64.72 0 -29.96 211.71c-5.79,41.38 -11.67,68.86 -17.79,82.35 -9.52,20.85 -25.58,38.15 -48.09,51.81 -22.51,13.73 -50.81,20.6 -84.83,20.6 -28.31,0 -52.97,-5.37 -73.91,-16.05 -21.02,-10.76 -36.66,-24.58 -47.01,-41.47l56.78 -29.05c17.05,17.3 39.23,25.99 66.54,25.99 15.81,0 29.55,-2.81 41.13,-8.44 11.59,-5.63 20.61,-13.16 27.07,-22.76 6.45,-9.52 11.01,-23.75 13.65,-42.54 -24,21.02 -51.23,31.53 -81.6,31.53 -21.19,0 -40.72,-5.21 -58.68,-15.64 -17.96,-10.35 -32.03,-25 -42.29,-43.87 -10.27,-18.95 -15.4,-39.89 -15.4,-62.98 0,-25.99 6.71,-50.4 20.11,-73.25 13.41,-22.84 31.7,-40.88 54.79,-54.29 23.09,-13.41 47.26,-20.11 72.42,-20.11 15.23,0 29.05,2.98 41.47,8.86 12.41,5.95 24.58,15.89 36.5,29.87l4.38 -32.27zm-80.03 54.62c-24.17,0 -44.61,8.19 -61.16,24.58 -16.64,16.39 -24.92,36.58 -24.92,60.5 0,19.45 6.21,35.09 18.54,46.76 12.34,11.76 28.81,17.63 49.5,17.63 15.56,0 29.87,-3.56 43.03,-10.76 13.16,-7.2 23.59,-17.54 31.29,-30.95 7.7,-13.41 11.5,-27.89 11.5,-43.37 0,-18.46 -6.37,-33.77 -19.03,-46.02 -12.67,-12.25 -28.89,-18.37 -48.75,-18.37z"/>
  <path id="2" class="fil0 str0" d="M939.33 302.65l57.02 29.55c-12.74,16.72 -29.71,29.96 -50.82,39.73 -21.02,9.76 -44.44,14.65 -70.18,14.65 -40.22,0 -71.92,-11.26 -95.18,-33.85 -23.17,-22.6 -34.76,-52.56 -34.76,-89.97 0,-42.7 14.48,-78.87 43.53,-108.42 28.97,-29.55 64.06,-44.36 105.11,-44.36 24.67,0 46.68,5.38 66.05,16.14 19.28,10.84 34.51,26.48 45.69,47.09 11.17,20.61 16.71,42.96 16.71,67.12 0,7.62 -0.82,16.39 -2.4,26.57l-210.63 0c0.66,18.29 6.7,32.94 18.04,43.78 11.42,10.84 27.15,16.31 47.26,16.31 24.25,0 45.77,-8.11 64.56,-24.34zm16.63 -82.92c-4.88,-15.98 -12.99,-28.06 -24.33,-36.34 -11.34,-8.19 -25,-12.33 -41.05,-12.33 -15.81,0 -30.21,4.22 -42.96,12.75 -12.82,8.44 -22.51,20.44 -29.21,35.92l137.55 0z"/>
  <path id="3" class="fil0 str0" d="M1095.34 116.44l64.63 0 -3.64 27.06c24.75,-22.35 50.57,-33.52 77.3,-33.52 22.85,0 41.55,7.2 56.12,21.6 14.65,14.48 21.93,32.61 21.93,54.54 0,10.35 -1.41,25.74 -4.14,46.19l-20.19 147.81 -64.64 0 19.7 -144.26c1.9,-14.81 2.89,-25.9 2.89,-33.27 0,-10.59 -3.06,-18.78 -9.1,-24.49 -6.12,-5.72 -14.73,-8.53 -25.99,-8.53 -10.84,0 -21.76,3.72 -32.61,11.26 -10.92,7.53 -19.28,17.87 -25.07,31.2 -5.88,13.32 -11.26,38.32 -16.14,74.9l-12.42 93.19 -64.64 0 36.01 -263.68z"/>
  <path id="4" class="fil0 str0" d="M1601.94 14.64l65.13 0 -50.4 365.48 -64.64 0 3.89 -28.47c-14.07,12.99 -27.23,22.1 -39.48,27.23 -12.25,5.13 -25.99,7.7 -41.22,7.7 -34.92,0 -62.73,-12.83 -83.42,-38.4 -20.61,-25.66 -30.96,-55.46 -30.96,-89.47 0,-25.99 6.62,-50.66 19.78,-74.16 13.25,-23.42 30.96,-41.71 53.22,-54.87 22.26,-13.16 45.52,-19.7 69.85,-19.7 16.31,0 31.37,3.72 45.11,11.26 13.82,7.44 25.16,18.29 34.1,32.6l19.04 -139.2zm-111.74 314.33c15.98,0 29.88,-3.56 41.72,-10.59 11.83,-7.12 21.85,-18.21 29.87,-33.35 8.03,-15.15 12.09,-30.63 12.09,-46.44 0,-20.77 -6.04,-37.49 -18.21,-50.07 -12.08,-12.66 -28.06,-18.95 -47.92,-18.95 -23.01,0 -42.62,8.44 -58.68,25.33 -16.14,16.96 -24.17,38.73 -24.17,65.46 0,20.61 6.13,37.25 18.29,49.74 12.17,12.58 27.9,18.87 47.01,18.87z"/>
  <path id="5" class="fil0 str0" d="M1914.87 116.44l65.13 0 -36.5 263.68 -64.64 0 3.89 -28.63c-14.07,13.07 -27.14,22.18 -39.39,27.31 -12.17,5.21 -25.83,7.78 -41.05,7.78 -34.93,0 -62.66,-12.83 -83.26,-38.4 -20.61,-25.66 -30.88,-55.46 -30.88,-89.47 0,-25.99 6.63,-50.66 19.79,-74.16 13.16,-23.42 30.87,-41.71 53.05,-54.87 22.26,-13.16 45.43,-19.7 69.68,-19.7 16.31,0 31.29,3.72 45.11,11.09 13.74,7.45 25.08,18.21 34.02,32.44l5.05 -37.07zm-97.34 212.53c15.98,0 29.88,-3.56 41.72,-10.59 11.83,-7.12 21.85,-18.21 29.88,-33.35 8.02,-15.15 12.08,-30.63 12.08,-46.35 0,-20.78 -6.04,-37.49 -18.21,-50.16 -12.08,-12.66 -28.06,-18.95 -47.92,-18.95 -23.01,0 -42.62,8.44 -58.68,25.33 -16.14,16.96 -24.17,38.73 -24.17,65.46 0,20.61 6.13,37.25 18.29,49.74 12.17,12.58 27.9,18.87 47.01,18.87z"/>
  <path class="fil0 str0" d="M218.08 260.33l56.45 0 88.89 356.55 -64.97 0 -18.96 -75.98 -141.11 0 -40.64 75.98 -72 0 192.34 -356.55zm45.19 217.51l-28.63 -116.87 -62.49 116.87 91.12 0z"/>
  <path id="1" class="fil0 str0" d="M643.57 353.19l64.72 0 -29.96 211.71c-5.79,41.39 -11.67,68.86 -17.79,82.35 -9.52,20.86 -25.57,38.16 -48.09,51.81 -22.51,13.74 -50.81,20.61 -84.83,20.61 -28.31,0 -52.97,-5.38 -73.91,-16.05 -21.02,-10.76 -36.66,-24.59 -47.01,-41.47l56.78 -29.05c17.05,17.3 39.23,25.99 66.54,25.99 15.81,0 29.55,-2.82 41.13,-8.44 11.59,-5.63 20.61,-13.16 27.07,-22.76 6.45,-9.52 11.01,-23.76 13.65,-42.54 -24,21.02 -51.23,31.53 -81.6,31.53 -21.19,0 -40.72,-5.22 -58.68,-15.64 -17.96,-10.35 -32.03,-25 -42.29,-43.87 -10.27,-18.95 -15.4,-39.89 -15.4,-62.98 0,-25.99 6.71,-50.41 20.11,-73.25 13.41,-22.84 31.7,-40.88 54.79,-54.29 23.09,-13.41 47.26,-20.11 72.42,-20.11 15.23,0 29.05,2.98 41.47,8.85 12.41,5.96 24.58,15.89 36.5,29.88l4.38 -32.28zm-80.03 54.63c-24.17,0 -44.61,8.19 -61.16,24.58 -16.64,16.38 -24.91,36.58 -24.91,60.5 0,19.45 6.2,35.09 18.53,46.76 12.34,11.75 28.81,17.63 49.5,17.63 15.56,0 29.88,-3.56 43.03,-10.76 13.16,-7.2 23.59,-17.55 31.29,-30.95 7.7,-13.41 11.5,-27.9 11.5,-43.37 0,-18.46 -6.37,-33.77 -19.03,-46.02 -12.67,-12.25 -28.89,-18.37 -48.75,-18.37z"/>
  <path id="2" class="fil0 str0" d="M935.65 539.41l57.02 29.55c-12.74,16.72 -29.71,29.96 -50.82,39.73 -21.02,9.76 -44.44,14.64 -70.18,14.64 -40.22,0 -71.92,-11.25 -95.18,-33.85 -23.17,-22.59 -34.76,-52.55 -34.76,-89.96 0,-42.71 14.48,-78.87 43.53,-108.42 28.97,-29.55 64.06,-44.36 105.11,-44.36 24.67,0 46.68,5.38 66.05,16.14 19.28,10.84 34.51,26.48 45.69,47.09 11.17,20.61 16.71,42.95 16.71,67.12 0,7.61 -0.82,16.39 -2.4,26.57l-210.63 0c0.66,18.29 6.7,32.94 18.04,43.78 11.42,10.84 27.15,16.3 47.26,16.3 24.25,0 45.77,-8.11 64.56,-24.33zm16.63 -82.93c-4.88,-15.97 -12.99,-28.05 -24.33,-36.33 -11.34,-8.2 -25,-12.33 -41.05,-12.33 -15.81,0 -30.21,4.22 -42.96,12.74 -12.82,8.44 -22.51,20.45 -29.21,35.92l137.55 0z"/>
  <path id="3" class="fil0 str0" d="M1091.66 353.19l64.64 0 -3.65 27.07c24.75,-22.35 50.57,-33.52 77.3,-33.52 22.85,0 41.55,7.2 56.12,21.6 14.65,14.48 21.93,32.61 21.93,54.54 0,10.35 -1.4,25.74 -4.14,46.18l-20.19 147.82 -64.64 0 19.7 -144.26c1.9,-14.81 2.9,-25.9 2.9,-33.27 0,-10.59 -3.07,-18.79 -9.11,-24.5 -6.12,-5.71 -14.73,-8.52 -25.99,-8.52 -10.84,0 -21.76,3.72 -32.61,11.25 -10.92,7.53 -19.28,17.88 -25.07,31.2 -5.88,13.33 -11.26,38.32 -16.14,74.91l-12.42 93.19 -64.64 0 36.01 -263.69z"/>
  <path id="4" class="fil0 str0" d="M1598.26 251.39l65.13 0 -50.4 365.49 -64.64 0 3.89 -28.47c-14.07,12.99 -27.23,22.1 -39.48,27.23 -12.25,5.13 -25.99,7.69 -41.22,7.69 -34.92,0 -62.73,-12.82 -83.42,-38.4 -20.61,-25.66 -30.96,-55.45 -30.96,-89.47 0,-25.98 6.63,-50.65 19.78,-74.15 13.25,-23.42 30.96,-41.72 53.22,-54.88 22.27,-13.15 45.52,-19.69 69.86,-19.69 16.3,0 31.36,3.72 45.1,11.25 13.82,7.45 25.16,18.29 34.1,32.61l19.04 -139.21zm-111.74 314.34c15.98,0 29.88,-3.56 41.72,-10.59 11.83,-7.12 21.85,-18.21 29.88,-33.36 8.02,-15.14 12.08,-30.62 12.08,-46.43 0,-20.77 -6.04,-37.49 -18.21,-50.07 -12.08,-12.66 -28.06,-18.95 -47.92,-18.95 -23.01,0 -42.62,8.44 -58.68,25.32 -16.14,16.97 -24.17,38.74 -24.17,65.47 0,20.61 6.13,37.24 18.29,49.74 12.17,12.58 27.9,18.87 47.01,18.87z"/>
  <path id="5" class="fil0 str0" d="M1911.19 353.19l65.13 0 -36.5 263.69 -64.64 0 3.89 -28.64c-14.07,13.08 -27.14,22.18 -39.39,27.31 -12.17,5.22 -25.82,7.78 -41.05,7.78 -34.93,0 -62.66,-12.82 -83.26,-38.4 -20.61,-25.66 -30.87,-55.45 -30.87,-89.47 0,-25.98 6.62,-50.65 19.78,-74.15 13.16,-23.42 30.87,-41.72 53.05,-54.88 22.26,-13.15 45.44,-19.69 69.69,-19.69 16.3,0 31.28,3.72 45.1,11.09 13.74,7.45 25.08,18.2 34.02,32.44l5.05 -37.08zm-97.33 212.54c15.97,0 29.87,-3.56 41.71,-10.59 11.83,-7.12 21.85,-18.21 29.88,-33.36 8.03,-15.14 12.08,-30.62 12.08,-46.35 0,-20.77 -6.04,-37.49 -18.21,-50.15 -12.08,-12.66 -28.06,-18.95 -47.92,-18.95 -23.01,0 -42.62,8.44 -58.68,25.32 -16.14,16.97 -24.17,38.74 -24.17,65.47 0,20.61 6.13,37.24 18.3,49.74 12.16,12.58 27.89,18.87 47.01,18.87z"/>
  <path class="fil0 str0" d="M214.4 497.09l56.45 0 88.89 356.55 -64.97 0 -18.96 -75.98 -141.11 0 -40.64 75.98 -72 0 192.34 -356.55zm45.19 217.5l-28.63 -116.86 -62.49 116.86 91.12 0z"/>
  <path id="1" class="fil0 str0" d="M639.89 589.95l64.72 0 -29.96 211.71c-5.79,41.38 -11.67,68.86 -17.79,82.35 -9.52,20.86 -25.57,38.15 -48.09,51.81 -22.51,13.74 -50.81,20.61 -84.83,20.61 -28.31,0 -52.97,-5.38 -73.91,-16.06 -21.02,-10.76 -36.66,-24.58 -47.01,-41.46l56.78 -29.05c17.05,17.3 39.23,25.98 66.54,25.98 15.81,0 29.55,-2.81 41.13,-8.44 11.59,-5.62 20.61,-13.16 27.07,-22.76 6.45,-9.52 11.01,-23.75 13.65,-42.54 -24,21.02 -51.23,31.54 -81.6,31.54 -21.19,0 -40.72,-5.22 -58.68,-15.65 -17.96,-10.34 -32.03,-24.99 -42.29,-43.86 -10.27,-18.96 -15.4,-39.89 -15.4,-62.99 0,-25.98 6.71,-50.4 20.11,-73.24 13.41,-22.84 31.7,-40.89 54.79,-54.29 23.09,-13.41 47.26,-20.12 72.42,-20.12 15.23,0 29.05,2.98 41.47,8.86 12.41,5.96 24.58,15.89 36.5,29.88l4.38 -32.28zm-80.03 54.62c-24.17,0 -44.61,8.2 -61.16,24.58 -16.64,16.39 -24.91,36.59 -24.91,60.5 0,19.45 6.2,35.1 18.53,46.77 12.34,11.75 28.81,17.63 49.5,17.63 15.56,0 29.88,-3.56 43.03,-10.76 13.16,-7.2 23.59,-17.55 31.29,-30.96 7.7,-13.41 11.5,-27.89 11.5,-43.37 0,-18.45 -6.37,-33.76 -19.03,-46.01 -12.67,-12.25 -28.89,-18.38 -48.75,-18.38z"/>
  <path id="2" class="fil0 str0" d="M931.97 776.17l57.02 29.54c-12.74,16.72 -29.71,29.97 -50.82,39.73 -21.02,9.77 -44.44,14.65 -70.18,14.65 -40.22,0 -71.92,-11.25 -95.18,-33.85 -23.17,-22.59 -34.76,-52.55 -34.76,-89.96 0,-42.71 14.48,-78.88 43.53,-108.43 28.97,-29.54 64.06,-44.36 105.11,-44.36 24.67,0 46.68,5.38 66.05,16.14 19.28,10.84 34.51,26.49 45.69,47.09 11.17,20.61 16.71,42.96 16.71,67.13 0,7.61 -0.82,16.38 -2.4,26.56l-210.63 0c0.66,18.3 6.7,32.94 18.04,43.79 11.42,10.84 27.15,16.3 47.26,16.3 24.25,0 45.77,-8.11 64.56,-24.33zm16.63 -82.93c-4.88,-15.98 -12.99,-28.06 -24.33,-36.34 -11.34,-8.19 -25,-12.33 -41.05,-12.33 -15.81,0 -30.21,4.22 -42.96,12.75 -12.82,8.44 -22.51,20.44 -29.21,35.92l137.55 0z"/>
  <path id="3" class="fil0 str0" d="M1087.98 589.95l64.64 0 -3.65 27.06c24.75,-22.34 50.57,-33.52 77.3,-33.52 22.85,0 41.55,7.2 56.12,21.6 14.65,14.49 21.93,32.61 21.93,54.55 0,10.34 -1.4,25.74 -4.14,46.18l-20.19 147.82 -64.64 0 19.7 -144.26c1.9,-14.82 2.9,-25.91 2.9,-33.27 0,-10.6 -3.07,-18.79 -9.11,-24.5 -6.12,-5.71 -14.73,-8.53 -25.99,-8.53 -10.84,0 -21.76,3.73 -32.61,11.26 -10.92,7.53 -19.28,17.88 -25.07,31.2 -5.88,13.33 -11.26,38.32 -16.14,74.9l-12.42 93.2 -64.64 0 36.01 -263.69z"/>
  <path id="4" class="fil0 str0" d="M1594.58 488.15l65.13 0 -50.4 365.49 -64.64 0 3.89 -28.48c-14.07,13 -27.23,22.1 -39.48,27.23 -12.25,5.13 -25.99,7.7 -41.22,7.7 -34.92,0 -62.73,-12.83 -83.42,-38.4 -20.61,-25.66 -30.96,-55.45 -30.96,-89.47 0,-25.99 6.63,-50.65 19.78,-74.16 13.25,-23.42 30.96,-41.71 53.22,-54.87 22.26,-13.16 45.52,-19.7 69.86,-19.7 16.3,0 31.36,3.73 45.1,11.26 13.82,7.45 25.16,18.29 34.1,32.61l19.04 -139.21zm-111.74 314.34c15.98,0 29.88,-3.56 41.72,-10.6 11.83,-7.11 21.85,-18.2 29.87,-33.35 8.03,-15.15 12.09,-30.62 12.09,-46.43 0,-20.77 -6.04,-37.49 -18.21,-50.07 -12.08,-12.67 -28.06,-18.96 -47.92,-18.96 -23.01,0 -42.62,8.45 -58.68,25.33 -16.14,16.97 -24.17,38.73 -24.17,65.47 0,20.6 6.13,37.24 18.29,49.74 12.17,12.58 27.9,18.87 47.01,18.87z"/>
  <path id="5" class="fil0 str0" d="M1907.51 589.95l65.13 0 -36.5 263.69 -64.64 0 3.89 -28.64c-14.07,13.08 -27.14,22.18 -39.39,27.31 -12.17,5.21 -25.82,7.78 -41.05,7.78 -34.93,0 -62.66,-12.83 -83.26,-38.4 -20.61,-25.66 -30.87,-55.45 -30.87,-89.47 0,-25.99 6.62,-50.65 19.78,-74.16 13.16,-23.42 30.87,-41.71 53.05,-54.87 22.26,-13.16 45.43,-19.7 69.69,-19.7 16.3,0 31.28,3.73 45.1,11.09 13.74,7.45 25.08,18.21 34.02,32.45l5.05 -37.08zm-97.33 212.54c15.97,0 29.87,-3.56 41.71,-10.6 11.83,-7.11 21.85,-18.2 29.88,-33.35 8.02,-15.15 12.08,-30.62 12.08,-46.35 0,-20.77 -6.04,-37.49 -18.21,-50.15 -12.08,-12.67 -28.06,-18.96 -47.92,-18.96 -23.01,0 -42.62,8.45 -58.68,25.33 -16.14,16.97 -24.17,38.73 -24.17,65.47 0,20.6 6.13,37.24 18.3,49.74 12.16,12.58 27.89,18.87 47.01,18.87z"/>
 </g>
</svg>
