<?xml version="1.0" encoding="UTF-8"?>
<!DOCTYPE svg PUBLIC "-//W3C//DTD SVG 1.1//EN" "http://www.w3.org/Graphics/SVG/1.1/DTD/svg11.dtd">
<!-- Creator: CorelDRAW 2018 (64-Bit) -->
<svg xmlns="http://www.w3.org/2000/svg" xml:space="preserve" width="4000px" height="2000px" version="1.1" style="shape-rendering:geometricPrecision; text-rendering:geometricPrecision; image-rendering:optimizeQuality; fill-rule:evenodd; clip-rule:evenodd"
viewBox="0 0 4000 2000"
 xmlns:xlink="http://www.w3.org/1999/xlink">
 <defs>
  <style type="text/css">
   <![CDATA[
    .str0 {stroke:white;stroke-width:12;stroke-miterlimit:22.9256}
    .fil0 {fill:none;fill-rule:nonzero}
    .fil1 {fill:white;fill-rule:nonzero}
   ]]>
  </style>
 </defs>
 <g id="Layer_x0020_1">
  <metadata id="CorelCorpID_0Corel-Layer"/>
  <path class="fil0 str0" d="M479.84 1048.59l176.62 0 -66.36 -215.04c-1.98,-6.53 -4.86,-17.01 -8.36,-31.58 -3.64,-14.58 -8.2,-33.26 -13.82,-56.04 -3.79,15.94 -7.59,31.28 -11.39,45.86 -3.64,14.43 -7.44,28.4 -11.23,41.76l-65.46 215.04zm-248.9 243.28l224.91 -651.48 222.48 0 225.05 651.48 -176.61 0 -32.95 -116.63 -252.24 0 -33.87 116.63 -176.77 0z"/>
  <path id="1" class="fil0 str0" d="M1297.01 1065.9c0,-34.63 -9.27,-61.81 -27.79,-81.55 -18.53,-19.74 -44.04,-29.61 -76.69,-29.61 -32.96,0 -58.77,9.87 -77.61,29.61 -18.83,19.74 -28.24,46.92 -28.24,81.55 0,34.32 9.41,61.5 28.24,81.39 18.84,19.9 44.65,29.77 77.61,29.77 32.34,0 57.85,-9.87 76.53,-29.77 18.53,-19.89 27.95,-47.07 27.95,-81.39zm139.55 -223.24l0 448.45c0,68.03 -20.65,118.15 -62.11,150.64 -41.3,32.5 -105.39,48.75 -191.95,48.75 -70.16,0 -124.98,-13.06 -164.77,-39.03 -39.78,-25.97 -60.74,-62.87 -63.17,-110.4l164.01 0c2.43,13.97 10.17,24.9 23.39,32.8 13.21,7.9 30.67,11.85 52.24,11.85 34.16,0 57.7,-8.2 70.46,-24.61 12.91,-16.55 19.44,-51.02 19.44,-103.87l0 -41c-16.56,28.25 -37.82,49.35 -63.63,63.17 -25.82,13.82 -56.49,20.66 -92.03,20.66 -59.38,0 -106.91,-21.42 -142.9,-64.39 -35.84,-42.83 -53.76,-100.08 -53.76,-171.6 0,-72.14 18.83,-129.54 56.34,-172.06 37.51,-42.67 87.93,-63.94 151.41,-63.94 33.56,0 62.41,6.99 87.01,20.96 24.45,13.97 45.56,35.84 63.33,65.6l0 -71.98 146.69 0z"/>
  <path id="2" class="fil0 str0" d="M1865.87 1009.41c-3.03,-25.52 -12.75,-46.02 -29.15,-61.51 -16.56,-15.49 -36.75,-23.23 -60.9,-23.23 -25.82,0 -46.47,6.98 -61.81,21.11 -15.18,14.12 -25.36,35.38 -30.52,63.63l182.38 0zm155.81 89.29l-341.68 0c0.3,34.62 9.26,61.35 26.72,80.18 17.62,18.83 42.37,28.25 74.42,28.25 24.14,0 44.34,-4.56 60.89,-13.52 16.4,-9.11 29.01,-22.47 37.66,-40.24l119.21 47.99c-14.27,34.47 -39.48,61.04 -75.62,79.72 -36.3,18.68 -80.64,28.1 -133.18,28.1 -78.36,0 -141.23,-21.72 -188.46,-65.15 -47.38,-43.58 -71.07,-100.83 -71.07,-172.06 0,-70.01 23.69,-128.17 70.92,-174.49 47.38,-46.31 107.21,-69.4 179.49,-69.4 74.42,0 133.19,23.39 176.16,70.32 42.98,46.92 64.54,111.16 64.54,192.71l0 7.59z"/>
  <path id="3" class="fil0 str0" d="M2112.65 1291.87l0 -449.21 145.18 0 0 91.12c20.95,-36.6 45.25,-63.33 72.89,-80.34 27.49,-16.85 60.59,-25.36 99.01,-25.36 29.16,0 54.98,4.71 77.6,13.98 22.63,9.41 41.16,22.78 55.28,40.39 12,15.03 20.35,33.56 25.36,55.13 5.01,21.71 7.59,54.06 7.59,97.04l0 257.25 -158.54 0 0 -240.7c0,-35.99 -5.92,-61.96 -17.61,-78.36 -11.7,-16.25 -30.38,-24.45 -56.19,-24.45 -32.96,0 -56.95,12.15 -72.14,36.44 -15.03,24.3 -22.62,63.79 -22.62,118.46l0 188.61 -155.81 0z"/>
  <path id="4" class="fil0 str0" d="M3050.69 1067.72c0,-34.93 -9.26,-62.57 -27.79,-82.76 -18.38,-20.2 -43.74,-30.22 -75.63,-30.22 -32.04,0 -57.25,10.02 -75.62,30.22 -18.38,20.19 -27.49,47.83 -27.49,82.76 0,35.23 9.11,62.87 27.33,82.92 18.23,20.04 43.44,30.06 75.78,30.06 31.89,0 57.25,-10.02 75.63,-30.22 18.53,-20.19 27.79,-47.83 27.79,-82.76zm140.62 -465.6l0 689.75 -145.93 0 0 -72.9c-20.2,30.22 -42.83,52.85 -68.04,67.73 -25.21,15.04 -53.15,22.48 -83.98,22.48 -63.17,0 -113.44,-21.87 -150.79,-65.45 -37.36,-43.59 -56.04,-102.36 -56.04,-176.16 0,-71.53 18.68,-129.39 55.88,-173.43 37.21,-44.04 85.65,-66.06 145.49,-66.06 37.96,0 68.94,6.84 92.78,20.51 23.84,13.66 45.1,36.59 63.78,68.64 -1.82,-10.63 -3.03,-22.78 -3.95,-36.3 -0.91,-13.51 -1.36,-28.24 -1.36,-43.89l0 -234.92 152.16 0z"/>
  <path id="5" class="fil0 str0" d="M3651.45 1066.81c0,-35.08 -9.26,-62.72 -27.94,-83.22 -18.68,-20.5 -44.19,-30.68 -76.54,-30.68 -32.35,0 -57.71,10.18 -76.24,30.53 -18.52,20.19 -27.79,48.14 -27.79,83.37 0,34.93 9.27,62.57 27.95,82.76 18.68,20.2 44.04,30.22 76.08,30.22 32.35,0 57.86,-10.02 76.54,-30.22 18.68,-20.19 27.94,-47.83 27.94,-82.76zm139.56 -224.15l0 449.21 -145.79 0 0 -72.9c-20.8,31.13 -44.04,53.91 -70,68.49 -25.97,14.43 -56.5,21.72 -91.42,21.72 -59.99,0 -107.82,-21.87 -143.82,-65.61 -35.84,-43.73 -53.75,-102.5 -53.75,-176 0,-73.35 18.83,-131.51 56.34,-174.79 37.5,-43.13 87.92,-64.7 151.4,-64.7 33.87,0 63.02,7.29 87.47,21.72 24.45,14.43 45.41,36.6 62.87,66.67l0 -73.81 146.7 0z"/>
  <path class="fil1" d="M451.42 983.35l176.62 0 -66.37 -215.04c-1.97,-6.53 -4.86,-17.01 -8.35,-31.58 -3.64,-14.58 -8.2,-33.26 -13.82,-56.04 -3.8,15.94 -7.59,31.28 -11.39,45.86 -3.64,14.43 -7.44,28.4 -11.24,41.76l-65.45 215.04zm-248.9 243.28l224.91 -651.48 222.47 0 225.06 651.48 -176.61 0 -32.96 -116.63 -252.24 0 -33.86 116.63 -176.77 0z"/>
  <path id="1" class="fil1" d="M1268.58 1000.66c0,-34.63 -9.26,-61.81 -27.79,-81.55 -18.52,-19.74 -44.04,-29.61 -76.69,-29.61 -32.95,0 -58.77,9.87 -77.6,29.61 -18.83,19.74 -28.24,46.92 -28.24,81.55 0,34.32 9.41,61.5 28.24,81.4 18.83,19.89 44.65,29.76 77.6,29.76 32.35,0 57.86,-9.87 76.54,-29.76 18.53,-19.9 27.94,-47.08 27.94,-81.4zm139.56 -223.24l0 448.45c0,68.03 -20.65,118.15 -62.11,150.64 -41.3,32.5 -105.39,48.75 -191.95,48.75 -70.16,0 -124.98,-13.06 -164.77,-39.03 -39.79,-25.97 -60.74,-62.87 -63.17,-110.4l164.01 0c2.43,13.97 10.17,24.91 23.38,32.8 13.22,7.9 30.68,11.85 52.24,11.85 34.17,0 57.71,-8.2 70.47,-24.6 12.9,-16.56 19.44,-51.03 19.44,-103.88l0 -41c-16.56,28.25 -37.82,49.35 -63.63,63.17 -25.82,13.82 -56.5,20.66 -92.03,20.66 -59.38,0 -106.91,-21.41 -142.9,-64.39 -35.84,-42.83 -53.76,-100.08 -53.76,-171.6 0,-72.14 18.83,-129.54 56.34,-172.06 37.51,-42.67 87.93,-63.94 151.4,-63.94 33.57,0 62.42,6.99 87.02,20.96 24.45,13.97 45.56,35.84 63.33,65.61l0 -71.99 146.69 0z"/>
  <path id="2" class="fil1" d="M1837.45 944.17c-3.03,-25.52 -12.75,-46.02 -29.15,-61.51 -16.56,-15.49 -36.75,-23.23 -60.9,-23.23 -25.82,0 -46.47,6.98 -61.81,21.11 -15.18,14.12 -25.36,35.38 -30.52,63.63l182.38 0zm155.81 89.29l-341.69 0c0.31,34.63 9.27,61.35 26.73,80.18 17.62,18.83 42.37,28.25 74.41,28.25 24.15,0 44.35,-4.56 60.9,-13.52 16.4,-9.11 29.01,-22.47 37.66,-40.24l119.21 47.99c-14.27,34.47 -39.48,61.05 -75.62,79.72 -36.3,18.68 -80.64,28.1 -133.19,28.1 -78.36,0 -141.23,-21.72 -188.46,-65.15 -47.38,-43.58 -71.07,-100.83 -71.07,-172.06 0,-70 23.69,-128.17 70.92,-174.48 47.38,-46.32 107.22,-69.41 179.5,-69.41 74.41,0 133.18,23.39 176.16,70.32 42.98,46.92 64.54,111.16 64.54,192.71l0 7.59z"/>
  <path id="3" class="fil1" d="M2084.23 1226.63l0 -449.21 145.17 0 0 91.12c20.96,-36.6 45.26,-63.33 72.9,-80.33 27.48,-16.86 60.59,-25.37 99.01,-25.37 29.16,0 54.97,4.71 77.6,13.98 22.63,9.41 41.16,22.78 55.28,40.39 12,15.04 20.35,33.56 25.36,55.13 5.01,21.71 7.59,54.06 7.59,97.04l0 257.25 -158.54 0 0 -240.7c0,-35.99 -5.92,-61.96 -17.62,-78.36 -11.69,-16.25 -30.37,-24.45 -56.18,-24.45 -32.96,0 -56.95,12.15 -72.14,36.45 -15.03,24.29 -22.63,63.78 -22.63,118.45l0 188.61 -155.8 0z"/>
  <path id="4" class="fil1" d="M3022.27 1002.48c0,-34.93 -9.27,-62.57 -27.79,-82.76 -18.38,-20.2 -43.74,-30.22 -75.63,-30.22 -32.04,0 -57.25,10.02 -75.63,30.22 -18.37,20.19 -27.48,47.83 -27.48,82.76 0,35.23 9.11,62.87 27.33,82.92 18.23,20.04 43.43,30.07 75.78,30.07 31.89,0 57.25,-10.03 75.63,-30.22 18.52,-20.2 27.79,-47.84 27.79,-82.77zm140.62 -465.6l0 689.75 -145.94 0 0 -72.9c-20.2,30.22 -42.82,52.85 -68.03,67.73 -25.21,15.04 -53.15,22.48 -83.98,22.48 -63.17,0 -113.44,-21.87 -150.8,-65.45 -37.36,-43.59 -56.03,-102.36 -56.03,-176.16 0,-71.53 18.67,-129.39 55.88,-173.43 37.21,-44.03 85.65,-66.06 145.48,-66.06 37.97,0 68.95,6.84 92.79,20.51 23.84,13.66 45.1,36.6 63.78,68.64 -1.82,-10.63 -3.04,-22.78 -3.95,-36.3 -0.91,-13.51 -1.36,-28.24 -1.36,-43.89l0 -234.92 152.16 0z"/>
  <path id="5" class="fil1" d="M3623.03 1001.57c0,-35.08 -9.27,-62.72 -27.95,-83.22 -18.67,-20.5 -44.19,-30.68 -76.53,-30.68 -32.35,0 -57.71,10.18 -76.24,30.53 -18.52,20.2 -27.79,48.14 -27.79,83.37 0,34.93 9.27,62.57 27.95,82.76 18.67,20.2 44.04,30.22 76.08,30.22 32.34,0 57.86,-10.02 76.53,-30.22 18.68,-20.19 27.95,-47.83 27.95,-82.76zm139.56 -224.15l0 449.21 -145.79 0 0 -72.9c-20.8,31.14 -44.04,53.91 -70.01,68.49 -25.96,14.43 -56.49,21.72 -91.42,21.72 -59.98,0 -107.82,-21.87 -143.81,-65.6 -35.84,-43.74 -53.76,-102.51 -53.76,-176.01 0,-73.35 18.83,-131.51 56.34,-174.79 37.51,-43.13 87.93,-64.7 151.41,-64.7 33.86,0 63.02,7.29 87.47,21.72 24.45,14.43 45.41,36.6 62.87,66.67l0 -73.81 146.7 0z"/>
 </g>
</svg>
