<?xml version="1.0" encoding="UTF-8"?>
<!DOCTYPE svg PUBLIC "-//W3C//DTD SVG 1.1//EN" "http://www.w3.org/Graphics/SVG/1.1/DTD/svg11.dtd">
<!-- Creator: CorelDRAW 2018 (64-Bit) -->
<svg xmlns="http://www.w3.org/2000/svg" xml:space="preserve" width="2000px" height="1000px" version="1.1" style="shape-rendering:geometricPrecision; text-rendering:geometricPrecision; image-rendering:optimizeQuality; fill-rule:evenodd; clip-rule:evenodd"
viewBox="0 0 2000 1000"
 xmlns:xlink="http://www.w3.org/1999/xlink">
 <defs>
  <style type="text/css">
   <![CDATA[
    .fil0 {fill:white;fill-rule:nonzero}
   ]]>
  </style>
 </defs>
 <g id="Layer_x0020_1">
  <metadata id="CorelCorpID_0Corel-Layer"/>
  <g id="_1982443811744">
   <path class="fil0" d="M1884.16 290.67c-39.11,0 -70.82,-31.71 -70.82,-70.82 0,-39.13 31.71,-70.84 70.82,-70.84 39.13,0 70.84,31.71 70.84,70.84 0,39.11 -31.71,70.82 -70.84,70.82z"/>
   <path class="fil0" d="M1440.58 290.67c-39.13,0 -70.82,-31.71 -70.82,-70.82 0,-39.13 31.69,-70.84 70.82,-70.84 39.14,0 70.82,31.71 70.82,70.84 0,39.11 -31.68,70.82 -70.82,70.82z"/>
   <path class="fil0" d="M1884.16 762.35c-39.11,0 -70.82,-31.72 -70.82,-70.85 0,-39.13 31.71,-70.82 70.82,-70.82 39.13,0 70.84,31.69 70.84,70.82 0,39.13 -31.71,70.85 -70.84,70.85z"/>
   <path class="fil0" d="M1440.58 762.35c-39.13,0 -70.82,-31.72 -70.82,-70.85 0,-39.13 31.69,-70.82 70.82,-70.82 39.14,0 70.82,31.69 70.82,70.82 0,39.13 -31.68,70.85 -70.82,70.85z"/>
   <path class="fil0" d="M996.98 290.67c-39.1,0 -70.82,-31.71 -70.82,-70.82 0,-39.13 31.72,-70.84 70.82,-70.84 39.14,0 70.85,31.71 70.85,70.84 0,39.11 -31.71,70.82 -70.85,70.82z"/>
   <path class="fil0" d="M553.42 290.67c-39.14,0 -70.82,-31.71 -70.82,-70.82 0,-39.13 31.68,-70.84 70.82,-70.84 39.13,0 70.82,31.71 70.82,70.84 0,39.11 -31.69,70.82 -70.82,70.82z"/>
   <path class="fil0" d="M109.82 290.67c-39.11,0 -70.82,-31.71 -70.82,-70.82 0,-39.13 31.71,-70.84 70.82,-70.84 39.13,0 70.84,31.71 70.84,70.84 0,39.11 -31.71,70.82 -70.84,70.82z"/>
   <path class="fil0" d="M996.98 762.35c-39.1,0 -70.82,-31.72 -70.82,-70.85 0,-39.13 31.72,-70.82 70.82,-70.82 39.14,0 70.85,31.69 70.85,70.82 0,39.13 -31.71,70.85 -70.85,70.85z"/>
   <path class="fil0" d="M553.42 762.35c-39.14,0 -70.82,-31.72 -70.82,-70.85 0,-39.13 31.68,-70.82 70.82,-70.82 39.13,0 70.82,31.69 70.82,70.82 0,39.13 -31.69,70.85 -70.82,70.85z"/>
   <path class="fil0" d="M109.82 762.35c-39.11,0 -70.82,-31.72 -70.82,-70.85 0,-39.13 31.71,-70.82 70.82,-70.82 39.13,0 70.84,31.69 70.84,70.82 0,39.13 -31.71,70.85 -70.84,70.85z"/>
  </g>
 </g>
</svg>
