<?xml version="1.0" encoding="UTF-8"?>
<!DOCTYPE svg PUBLIC "-//W3C//DTD SVG 1.1//EN" "http://www.w3.org/Graphics/SVG/1.1/DTD/svg11.dtd">
<!-- Creator: CorelDRAW 2018 (64-Bit) -->
<svg xmlns="http://www.w3.org/2000/svg" xml:space="preserve" width="91.44mm" height="162.56mm" version="1.1" style="shape-rendering:geometricPrecision; text-rendering:geometricPrecision; image-rendering:optimizeQuality; fill-rule:evenodd; clip-rule:evenodd"
viewBox="0 0 9144 16256"
 xmlns:xlink="http://www.w3.org/1999/xlink">
 <defs>
  <style type="text/css">
   <![CDATA[
    .fil0 {fill:white;fill-rule:nonzero}
   ]]>
  </style>
 </defs>
 <g id="Layer_x0020_1">
  <metadata id="CorelCorpID_0Corel-Layer"/>
  <path class="fil0" d="M8500.73 5670.47c-172.8,0 -312.94,-140.04 -312.94,-312.95 0,-172.95 140.14,-312.95 312.94,-312.95 172.91,0 313.05,140 313.05,312.95 0,172.91 -140.14,312.95 -313.05,312.95z"/>
  <path class="fil0" d="M6540.61 5670.47c-172.91,0 -312.94,-140.04 -312.94,-312.95 0,-172.95 140.03,-312.95 312.94,-312.95 172.95,0 312.95,140 312.95,312.95 0,172.91 -140,312.95 -312.95,312.95z"/>
  <path class="fil0" d="M8500.73 7754.72c-172.8,0 -312.94,-140.14 -312.94,-312.95 0,-172.91 140.14,-313.05 312.94,-313.05 172.91,0 313.05,140.14 313.05,313.05 0,172.81 -140.14,312.95 -313.05,312.95z"/>
  <path class="fil0" d="M6540.61 7754.72c-172.91,0 -312.94,-140.14 -312.94,-312.95 0,-172.91 140.03,-313.05 312.94,-313.05 172.95,0 312.95,140.14 312.95,313.05 0,172.81 -140,312.95 -312.95,312.95z"/>
  <path class="fil0" d="M8500.73 9839.01c-172.8,0 -312.94,-140.14 -312.94,-313.09 0,-172.91 140.14,-312.94 312.94,-312.94 172.91,0 313.05,140.03 313.05,312.94 0,172.95 -140.14,313.09 -313.05,313.09z"/>
  <path class="fil0" d="M6540.61 9839.01c-172.91,0 -312.94,-140.14 -312.94,-313.09 0,-172.91 140.03,-312.94 312.94,-312.94 172.95,0 312.95,140.03 312.95,312.94 0,172.95 -140,313.09 -312.95,313.09z"/>
  <path class="fil0" d="M4580.39 5670.47c-172.81,0 -312.95,-140.04 -312.95,-312.95 0,-172.95 140.14,-312.95 312.95,-312.95 172.94,0 313.08,140 313.08,312.95 0,172.91 -140.14,312.95 -313.08,312.95z"/>
  <path class="fil0" d="M2620.3 5670.47c-172.94,0 -312.95,-140.04 -312.95,-312.95 0,-172.95 140.01,-312.95 312.95,-312.95 172.91,0 312.95,140 312.95,312.95 0,172.91 -140.04,312.95 -312.95,312.95z"/>
  <path class="fil0" d="M660.08 5670.47c-172.81,0 -312.95,-140.04 -312.95,-312.95 0,-172.95 140.14,-312.95 312.95,-312.95 172.91,0 313.05,140 313.05,312.95 0,172.91 -140.14,312.95 -313.05,312.95z"/>
  <path class="fil0" d="M4580.39 7754.72c-172.81,0 -312.95,-140.14 -312.95,-312.95 0,-172.91 140.14,-313.05 312.95,-313.05 172.94,0 313.08,140.14 313.08,313.05 0,172.81 -140.14,312.95 -313.08,312.95z"/>
  <path class="fil0" d="M2620.3 7754.72c-172.94,0 -312.95,-140.14 -312.95,-312.95 0,-172.91 140.01,-313.05 312.95,-313.05 172.91,0 312.95,140.14 312.95,313.05 0,172.81 -140.04,312.95 -312.95,312.95z"/>
  <path class="fil0" d="M660.08 7754.72c-172.81,0 -312.95,-140.14 -312.95,-312.95 0,-172.91 140.14,-313.05 312.95,-313.05 172.91,0 313.05,140.14 313.05,313.05 0,172.81 -140.14,312.95 -313.05,312.95z"/>
  <path class="fil0" d="M4580.39 9839.01c-172.81,0 -312.95,-140.14 -312.95,-313.09 0,-172.91 140.14,-312.94 312.95,-312.94 172.94,0 313.08,140.03 313.08,312.94 0,172.95 -140.14,313.09 -313.08,313.09z"/>
  <path class="fil0" d="M2620.3 9839.01c-172.94,0 -312.95,-140.14 -312.95,-313.09 0,-172.91 140.01,-312.94 312.95,-312.94 172.91,0 312.95,140.03 312.95,312.94 0,172.95 -140.04,313.09 -312.95,313.09z"/>
  <path class="fil0" d="M660.08 9839.01c-172.81,0 -312.95,-140.14 -312.95,-313.09 0,-172.91 140.14,-312.94 312.95,-312.94 172.91,0 313.05,140.03 313.05,312.94 0,172.95 -140.14,313.09 -313.05,313.09z"/>
 </g>
</svg>
