<?xml version="1.0" encoding="UTF-8"?>
<!DOCTYPE svg PUBLIC "-//W3C//DTD SVG 1.1//EN" "http://www.w3.org/Graphics/SVG/1.1/DTD/svg11.dtd">
<!-- Creator: CorelDRAW 2018 (64-Bit) -->
<svg xmlns="http://www.w3.org/2000/svg" xml:space="preserve" width="2000px" height="1000px" version="1.1" style="shape-rendering:geometricPrecision; text-rendering:geometricPrecision; image-rendering:optimizeQuality; fill-rule:evenodd; clip-rule:evenodd"
viewBox="0 0 2000 1000"
 xmlns:xlink="http://www.w3.org/1999/xlink">
 <defs>
  <style type="text/css">
   <![CDATA[
    .fil0 {fill:white;fill-rule:nonzero}
   ]]>
  </style>
 </defs>
 <g id="Layer_x0020_1">
  <metadata id="CorelCorpID_0Corel-Layer"/>
  <g id="_2018348594528">
   <path class="fil0" d="M1822.49 138.33c-34.6,0 -62.66,-28.04 -62.66,-62.66 0,-34.63 28.06,-62.66 62.66,-62.66 34.63,0 62.69,28.03 62.69,62.66 0,34.62 -28.06,62.66 -62.69,62.66z"/>
   <path class="fil0" d="M1430.01 138.33c-34.62,0 -62.66,-28.04 -62.66,-62.66 0,-34.63 28.04,-62.66 62.66,-62.66 34.63,0 62.67,28.03 62.67,62.66 0,34.62 -28.04,62.66 -62.67,62.66z"/>
   <path class="fil0" d="M1822.49 555.67c-34.6,0 -62.66,-28.06 -62.66,-62.66 0,-34.63 28.06,-62.69 62.66,-62.69 34.63,0 62.69,28.06 62.69,62.69 0,34.6 -28.06,62.66 -62.69,62.66z"/>
   <path class="fil0" d="M1430.01 555.67c-34.62,0 -62.66,-28.06 -62.66,-62.66 0,-34.63 28.04,-62.69 62.66,-62.69 34.63,0 62.67,28.06 62.67,62.69 0,34.6 -28.04,62.66 -62.67,62.66z"/>
   <path class="fil0" d="M1822.49 973.01c-34.6,0 -62.66,-28.06 -62.66,-62.69 0,-34.62 28.06,-62.66 62.66,-62.66 34.63,0 62.69,28.04 62.69,62.66 0,34.63 -28.06,62.69 -62.69,62.69z"/>
   <path class="fil0" d="M1430.01 973.01c-34.62,0 -62.66,-28.06 -62.66,-62.69 0,-34.62 28.04,-62.66 62.66,-62.66 34.63,0 62.67,28.04 62.67,62.66 0,34.63 -28.04,62.69 -62.67,62.69z"/>
   <path class="fil0" d="M1037.51 138.33c-34.6,0 -62.66,-28.04 -62.66,-62.66 0,-34.63 28.06,-62.66 62.66,-62.66 34.63,0 62.69,28.03 62.69,62.66 0,34.62 -28.06,62.66 -62.69,62.66z"/>
   <path class="fil0" d="M645.04 138.33c-34.63,0 -62.66,-28.04 -62.66,-62.66 0,-34.63 28.03,-62.66 62.66,-62.66 34.62,0 62.66,28.03 62.66,62.66 0,34.62 -28.04,62.66 -62.66,62.66z"/>
   <path class="fil0" d="M252.54 138.33c-34.6,0 -62.66,-28.04 -62.66,-62.66 0,-34.63 28.06,-62.66 62.66,-62.66 34.62,0 62.68,28.03 62.68,62.66 0,34.62 -28.06,62.66 -62.68,62.66z"/>
   <path class="fil0" d="M1037.51 555.67c-34.6,0 -62.66,-28.06 -62.66,-62.66 0,-34.63 28.06,-62.69 62.66,-62.69 34.63,0 62.69,28.06 62.69,62.69 0,34.6 -28.06,62.66 -62.69,62.66z"/>
   <path class="fil0" d="M645.04 555.67c-34.63,0 -62.66,-28.06 -62.66,-62.66 0,-34.63 28.03,-62.69 62.66,-62.69 34.62,0 62.66,28.06 62.66,62.69 0,34.6 -28.04,62.66 -62.66,62.66z"/>
   <path class="fil0" d="M252.54 555.67c-34.6,0 -62.66,-28.06 -62.66,-62.66 0,-34.63 28.06,-62.69 62.66,-62.69 34.62,0 62.68,28.06 62.68,62.69 0,34.6 -28.06,62.66 -62.68,62.66z"/>
   <path class="fil0" d="M1037.51 973.01c-34.6,0 -62.66,-28.06 -62.66,-62.69 0,-34.62 28.06,-62.66 62.66,-62.66 34.63,0 62.69,28.04 62.69,62.66 0,34.63 -28.06,62.69 -62.69,62.69z"/>
   <path class="fil0" d="M645.04 973.01c-34.63,0 -62.66,-28.06 -62.66,-62.69 0,-34.62 28.03,-62.66 62.66,-62.66 34.62,0 62.66,28.04 62.66,62.66 0,34.63 -28.04,62.69 -62.66,62.69z"/>
   <path class="fil0" d="M252.54 973.01c-34.6,0 -62.66,-28.06 -62.66,-62.69 0,-34.62 28.06,-62.66 62.66,-62.66 34.62,0 62.68,28.04 62.68,62.66 0,34.63 -28.06,62.69 -62.68,62.69z"/>
  </g>
 </g>
</svg>
