<?xml version="1.0" encoding="UTF-8"?>
<!DOCTYPE svg PUBLIC "-//W3C//DTD SVG 1.1//EN" "http://www.w3.org/Graphics/SVG/1.1/DTD/svg11.dtd">
<!-- Creator: CorelDRAW 2018 (64-Bit) -->
<svg xmlns="http://www.w3.org/2000/svg" xml:space="preserve" width="2000px" height="1000px" version="1.1" style="shape-rendering:geometricPrecision; text-rendering:geometricPrecision; image-rendering:optimizeQuality; fill-rule:evenodd; clip-rule:evenodd"
viewBox="0 0 2000 1000"
 xmlns:xlink="http://www.w3.org/1999/xlink">
 <defs>
  <style type="text/css">
   <![CDATA[
    .fil0 {fill:white;fill-rule:nonzero}
   ]]>
  </style>
 </defs>
 <g id="Layer_x0020_1">
  <metadata id="CorelCorpID_0Corel-Layer"/>
  <g id="_2018663765824">
   <path class="fil0" d="M1468.71 115.82c-23.71,0 -42.9,-19.21 -42.9,-42.92 0,-23.69 19.19,-42.9 42.9,-42.9 23.71,0 42.9,19.21 42.9,42.9 0,23.71 -19.19,42.92 -42.9,42.92z"/>
   <path class="fil0" d="M1199.98 115.82c-23.69,0 -42.9,-19.21 -42.9,-42.92 0,-23.69 19.21,-42.9 42.9,-42.9 23.71,0 42.92,19.21 42.92,42.9 0,23.71 -19.21,42.92 -42.92,42.92z"/>
   <path class="fil0" d="M931.28 115.82c-23.71,0 -42.91,-19.21 -42.91,-42.92 0,-23.69 19.2,-42.9 42.91,-42.9 23.7,0 42.9,19.21 42.9,42.9 0,23.71 -19.2,42.92 -42.9,42.92z"/>
   <path class="fil0" d="M662.55 115.82c-23.69,0 -42.9,-19.21 -42.9,-42.92 0,-23.69 19.21,-42.9 42.9,-42.9 23.7,0 42.91,19.21 42.91,42.9 0,23.71 -19.21,42.92 -42.91,42.92z"/>
   <path class="fil0" d="M1468.71 401.53c-23.71,0 -42.9,-19.19 -42.9,-42.9 0,-23.71 19.19,-42.9 42.9,-42.9 23.71,0 42.9,19.19 42.9,42.9 0,23.71 -19.19,42.9 -42.9,42.9z"/>
   <path class="fil0" d="M1468.71 687.26c-23.71,0 -42.9,-19.21 -42.9,-42.9 0,-23.7 19.19,-42.91 42.9,-42.91 23.71,0 42.9,19.21 42.9,42.91 0,23.69 -19.19,42.9 -42.9,42.9z"/>
   <path class="fil0" d="M1468.71 973c-23.71,0 -42.9,-19.21 -42.9,-42.92 0,-23.71 19.19,-42.9 42.9,-42.9 23.71,0 42.9,19.19 42.9,42.9 0,23.71 -19.19,42.92 -42.9,42.92z"/>
   <path class="fil0" d="M1199.98 401.53c-23.69,0 -42.9,-19.19 -42.9,-42.9 0,-23.71 19.21,-42.9 42.9,-42.9 23.71,0 42.92,19.19 42.92,42.9 0,23.71 -19.21,42.9 -42.92,42.9z"/>
   <path class="fil0" d="M931.28 401.53c-23.71,0 -42.91,-19.19 -42.91,-42.9 0,-23.71 19.2,-42.9 42.91,-42.9 23.7,0 42.9,19.19 42.9,42.9 0,23.71 -19.2,42.9 -42.9,42.9z"/>
   <path class="fil0" d="M662.55 401.53c-23.69,0 -42.9,-19.19 -42.9,-42.9 0,-23.71 19.21,-42.9 42.9,-42.9 23.7,0 42.91,19.19 42.91,42.9 0,23.71 -19.21,42.9 -42.91,42.9z"/>
   <path class="fil0" d="M1199.98 687.26c-23.69,0 -42.9,-19.21 -42.9,-42.9 0,-23.7 19.21,-42.91 42.9,-42.91 23.71,0 42.92,19.21 42.92,42.91 0,23.69 -19.21,42.9 -42.92,42.9z"/>
   <path class="fil0" d="M931.28 687.26c-23.71,0 -42.91,-19.21 -42.91,-42.9 0,-23.7 19.2,-42.91 42.91,-42.91 23.7,0 42.9,19.21 42.9,42.91 0,23.69 -19.2,42.9 -42.9,42.9z"/>
   <path class="fil0" d="M662.55 687.26c-23.69,0 -42.9,-19.21 -42.9,-42.9 0,-23.7 19.21,-42.91 42.9,-42.91 23.7,0 42.91,19.21 42.91,42.91 0,23.69 -19.21,42.9 -42.91,42.9z"/>
   <path class="fil0" d="M1199.98 973c-23.69,0 -42.9,-19.21 -42.9,-42.92 0,-23.71 19.21,-42.9 42.9,-42.9 23.71,0 42.92,19.19 42.92,42.9 0,23.71 -19.21,42.92 -42.92,42.92z"/>
   <path class="fil0" d="M931.28 973c-23.71,0 -42.91,-19.21 -42.91,-42.92 0,-23.71 19.2,-42.9 42.91,-42.9 23.7,0 42.9,19.19 42.9,42.9 0,23.71 -19.2,42.92 -42.9,42.92z"/>
   <path class="fil0" d="M662.55 973c-23.69,0 -42.9,-19.21 -42.9,-42.92 0,-23.71 19.21,-42.9 42.9,-42.9 23.7,0 42.91,19.19 42.91,42.9 0,23.71 -19.21,42.92 -42.91,42.92z"/>
  </g>
 </g>
</svg>
