<?xml version="1.0" encoding="UTF-8"?>
<!DOCTYPE svg PUBLIC "-//W3C//DTD SVG 1.1//EN" "http://www.w3.org/Graphics/SVG/1.1/DTD/svg11.dtd">
<!-- Creator: CorelDRAW 2018 (64-Bit) -->
<svg xmlns="http://www.w3.org/2000/svg" xml:space="preserve" width="2000px" height="1000px" version="1.1" style="shape-rendering:geometricPrecision; text-rendering:geometricPrecision; image-rendering:optimizeQuality; fill-rule:evenodd; clip-rule:evenodd"
viewBox="0 0 2000 1000"
 xmlns:xlink="http://www.w3.org/1999/xlink">
 <defs>
  <style type="text/css">
   <![CDATA[
    .fil0 {fill:white;fill-rule:nonzero}
   ]]>
  </style>
 </defs>
 <g id="Layer_x0020_1">
  <metadata id="CorelCorpID_0Corel-Layer"/>
  <path class="fil0" d="M1915.34 175.32c-26.89,0 -48.68,-21.78 -48.68,-48.66 0,-26.89 21.79,-48.66 48.68,-48.66 26.87,0 48.66,21.77 48.66,48.66 0,26.88 -21.79,48.66 -48.66,48.66z"/>
  <path class="fil0" d="M1610.55 175.32c-26.89,0 -48.65,-21.78 -48.65,-48.66 0,-26.89 21.76,-48.66 48.65,-48.66 26.89,0 48.66,21.77 48.66,48.66 0,26.88 -21.77,48.66 -48.66,48.66z"/>
  <path class="fil0" d="M1305.77 175.32c-26.87,0 -48.66,-21.78 -48.66,-48.66 0,-26.89 21.79,-48.66 48.66,-48.66 26.88,0 48.67,21.77 48.67,48.66 0,26.88 -21.79,48.66 -48.67,48.66z"/>
  <path class="fil0" d="M1001 175.32c-26.89,0 -48.66,-21.78 -48.66,-48.66 0,-26.89 21.77,-48.66 48.66,-48.66 26.89,0 48.66,21.77 48.66,48.66 0,26.88 -21.77,48.66 -48.66,48.66z"/>
  <path class="fil0" d="M1915.34 499.39c-26.89,0 -48.68,-21.79 -48.68,-48.66 0,-26.89 21.79,-48.68 48.68,-48.68 26.87,0 48.66,21.79 48.66,48.68 0,26.87 -21.79,48.66 -48.66,48.66z"/>
  <path class="fil0" d="M1610.55 499.39c-26.89,0 -48.65,-21.79 -48.65,-48.66 0,-26.89 21.76,-48.68 48.65,-48.68 26.89,0 48.66,21.79 48.66,48.68 0,26.87 -21.77,48.66 -48.66,48.66z"/>
  <path class="fil0" d="M1305.77 499.39c-26.87,0 -48.66,-21.79 -48.66,-48.66 0,-26.89 21.79,-48.68 48.66,-48.68 26.88,0 48.67,21.79 48.67,48.68 0,26.87 -21.79,48.66 -48.67,48.66z"/>
  <path class="fil0" d="M1001 499.39c-26.89,0 -48.66,-21.79 -48.66,-48.66 0,-26.89 21.77,-48.68 48.66,-48.68 26.89,0 48.66,21.79 48.66,48.68 0,26.87 -21.77,48.66 -48.66,48.66z"/>
  <path class="fil0" d="M1915.34 823.46c-26.89,0 -48.68,-21.79 -48.68,-48.68 0,-26.88 21.79,-48.66 48.68,-48.66 26.87,0 48.66,21.78 48.66,48.66 0,26.89 -21.79,48.68 -48.66,48.68z"/>
  <path class="fil0" d="M1610.55 823.46c-26.89,0 -48.65,-21.79 -48.65,-48.68 0,-26.88 21.76,-48.66 48.65,-48.66 26.89,0 48.66,21.78 48.66,48.66 0,26.89 -21.77,48.68 -48.66,48.68z"/>
  <path class="fil0" d="M1305.77 823.46c-26.87,0 -48.66,-21.79 -48.66,-48.68 0,-26.88 21.79,-48.66 48.66,-48.66 26.88,0 48.67,21.78 48.67,48.66 0,26.89 -21.79,48.68 -48.67,48.68z"/>
  <path class="fil0" d="M1001 823.46c-26.89,0 -48.66,-21.79 -48.66,-48.68 0,-26.88 21.77,-48.66 48.66,-48.66 26.89,0 48.66,21.78 48.66,48.66 0,26.89 -21.77,48.68 -48.66,48.68z"/>
  <path class="fil0" d="M696.21 175.32c-26.87,0 -48.66,-21.78 -48.66,-48.66 0,-26.89 21.79,-48.66 48.66,-48.66 26.89,0 48.68,21.77 48.68,48.66 0,26.88 -21.79,48.66 -48.68,48.66z"/>
  <path class="fil0" d="M391.44 175.32c-26.89,0 -48.65,-21.78 -48.65,-48.66 0,-26.89 21.76,-48.66 48.65,-48.66 26.89,0 48.66,21.77 48.66,48.66 0,26.88 -21.77,48.66 -48.66,48.66z"/>
  <path class="fil0" d="M86.66 175.32c-26.87,0 -48.66,-21.78 -48.66,-48.66 0,-26.89 21.79,-48.66 48.66,-48.66 26.88,0 48.67,21.77 48.67,48.66 0,26.88 -21.79,48.66 -48.67,48.66z"/>
  <path class="fil0" d="M696.21 499.39c-26.87,0 -48.66,-21.79 -48.66,-48.66 0,-26.89 21.79,-48.68 48.66,-48.68 26.89,0 48.68,21.79 48.68,48.68 0,26.87 -21.79,48.66 -48.68,48.66z"/>
  <path class="fil0" d="M391.44 499.39c-26.89,0 -48.65,-21.79 -48.65,-48.66 0,-26.89 21.76,-48.68 48.65,-48.68 26.89,0 48.66,21.79 48.66,48.68 0,26.87 -21.77,48.66 -48.66,48.66z"/>
  <path class="fil0" d="M86.66 499.39c-26.87,0 -48.66,-21.79 -48.66,-48.66 0,-26.89 21.79,-48.68 48.66,-48.68 26.88,0 48.67,21.79 48.67,48.68 0,26.87 -21.79,48.66 -48.67,48.66z"/>
  <path class="fil0" d="M696.21 823.46c-26.87,0 -48.66,-21.79 -48.66,-48.68 0,-26.88 21.79,-48.66 48.66,-48.66 26.89,0 48.68,21.78 48.68,48.66 0,26.89 -21.79,48.68 -48.68,48.68z"/>
  <path class="fil0" d="M391.44 823.46c-26.89,0 -48.65,-21.79 -48.65,-48.68 0,-26.88 21.76,-48.66 48.65,-48.66 26.89,0 48.66,21.78 48.66,48.66 0,26.89 -21.77,48.68 -48.66,48.68z"/>
  <path class="fil0" d="M86.66 823.46c-26.87,0 -48.66,-21.79 -48.66,-48.68 0,-26.88 21.79,-48.66 48.66,-48.66 26.88,0 48.67,21.78 48.67,48.66 0,26.89 -21.79,48.68 -48.67,48.68z"/>
 </g>
</svg>
