<?xml version="1.0" encoding="UTF-8"?>
<!DOCTYPE svg PUBLIC "-//W3C//DTD SVG 1.1//EN" "http://www.w3.org/Graphics/SVG/1.1/DTD/svg11.dtd">
<!-- Creator: CorelDRAW 2018 (64-Bit) -->
<svg xmlns="http://www.w3.org/2000/svg" xml:space="preserve" width="2000px" height="1000px" version="1.1" style="shape-rendering:geometricPrecision; text-rendering:geometricPrecision; image-rendering:optimizeQuality; fill-rule:evenodd; clip-rule:evenodd"
viewBox="0 0 2000 1000"
 xmlns:xlink="http://www.w3.org/1999/xlink">
 <defs>
  <style type="text/css">
   <![CDATA[
    .fil0 {fill:white;fill-rule:nonzero}
   ]]>
  </style>
 </defs>
 <g id="Layer_x0020_1">
  <metadata id="CorelCorpID_0Corel-Layer"/>
  <g id="_2018725460784">
   <path class="fil0" d="M1902.09 224.76c-26.97,0 -48.83,-21.84 -48.83,-48.81 0,-26.97 21.86,-48.8 48.83,-48.8 26.95,0 48.81,21.83 48.81,48.8 0,26.97 -21.86,48.81 -48.81,48.81z"/>
   <path class="fil0" d="M1596.37 224.76c-26.97,0 -48.81,-21.84 -48.81,-48.81 0,-26.97 21.84,-48.8 48.81,-48.8 26.97,0 48.81,21.83 48.81,48.8 0,26.97 -21.84,48.81 -48.81,48.81z"/>
   <path class="fil0" d="M1290.65 224.76c-26.95,0 -48.81,-21.84 -48.81,-48.81 0,-26.97 21.86,-48.8 48.81,-48.8 26.97,0 48.82,21.83 48.82,48.8 0,26.97 -21.85,48.81 -48.82,48.81z"/>
   <path class="fil0" d="M984.95 224.76c-26.97,0 -48.81,-21.84 -48.81,-48.81 0,-26.97 21.84,-48.8 48.81,-48.8 26.97,0 48.8,21.83 48.8,48.8 0,26.97 -21.83,48.81 -48.8,48.81z"/>
   <path class="fil0" d="M1902.09 549.83c-26.97,0 -48.83,-21.86 -48.83,-48.81 0,-26.97 21.86,-48.83 48.83,-48.83 26.95,0 48.81,21.86 48.81,48.83 0,26.95 -21.86,48.81 -48.81,48.81z"/>
   <path class="fil0" d="M1596.37 549.83c-26.97,0 -48.81,-21.86 -48.81,-48.81 0,-26.97 21.84,-48.83 48.81,-48.83 26.97,0 48.81,21.86 48.81,48.83 0,26.95 -21.84,48.81 -48.81,48.81z"/>
   <path class="fil0" d="M1290.65 549.83c-26.95,0 -48.81,-21.86 -48.81,-48.81 0,-26.97 21.86,-48.83 48.81,-48.83 26.97,0 48.82,21.86 48.82,48.83 0,26.95 -21.85,48.81 -48.82,48.81z"/>
   <path class="fil0" d="M984.95 549.83c-26.97,0 -48.81,-21.86 -48.81,-48.81 0,-26.97 21.84,-48.83 48.81,-48.83 26.97,0 48.8,21.86 48.8,48.83 0,26.95 -21.83,48.81 -48.8,48.81z"/>
   <path class="fil0" d="M1902.09 874.9c-26.97,0 -48.83,-21.86 -48.83,-48.83 0,-26.97 21.86,-48.81 48.83,-48.81 26.95,0 48.81,21.84 48.81,48.81 0,26.97 -21.86,48.83 -48.81,48.83z"/>
   <path class="fil0" d="M1596.37 874.9c-26.97,0 -48.81,-21.86 -48.81,-48.83 0,-26.97 21.84,-48.81 48.81,-48.81 26.97,0 48.81,21.84 48.81,48.81 0,26.97 -21.84,48.83 -48.81,48.83z"/>
   <path class="fil0" d="M1290.65 874.9c-26.95,0 -48.81,-21.86 -48.81,-48.83 0,-26.97 21.86,-48.81 48.81,-48.81 26.97,0 48.82,21.84 48.82,48.81 0,26.97 -21.85,48.83 -48.82,48.83z"/>
   <path class="fil0" d="M984.95 874.9c-26.97,0 -48.81,-21.86 -48.81,-48.83 0,-26.97 21.84,-48.81 48.81,-48.81 26.97,0 48.8,21.84 48.8,48.81 0,26.97 -21.83,48.83 -48.8,48.83z"/>
   <path class="fil0" d="M679.23 224.76c-26.96,0 -48.81,-21.84 -48.81,-48.81 0,-26.97 21.85,-48.8 48.81,-48.8 26.97,0 48.82,21.83 48.82,48.8 0,26.97 -21.85,48.81 -48.82,48.81z"/>
   <path class="fil0" d="M373.53 224.76c-26.98,0 -48.81,-21.84 -48.81,-48.81 0,-26.97 21.83,-48.8 48.81,-48.8 26.96,0 48.8,21.83 48.8,48.8 0,26.97 -21.84,48.81 -48.8,48.81z"/>
   <path class="fil0" d="M67.81 224.76c-26.95,0 -48.81,-21.84 -48.81,-48.81 0,-26.97 21.86,-48.8 48.81,-48.8 26.96,0 48.82,21.83 48.82,48.8 0,26.97 -21.86,48.81 -48.82,48.81z"/>
   <path class="fil0" d="M679.23 549.83c-26.96,0 -48.81,-21.86 -48.81,-48.81 0,-26.97 21.85,-48.83 48.81,-48.83 26.97,0 48.82,21.86 48.82,48.83 0,26.95 -21.85,48.81 -48.82,48.81z"/>
   <path class="fil0" d="M373.53 549.83c-26.98,0 -48.81,-21.86 -48.81,-48.81 0,-26.97 21.83,-48.83 48.81,-48.83 26.96,0 48.8,21.86 48.8,48.83 0,26.95 -21.84,48.81 -48.8,48.81z"/>
   <path class="fil0" d="M67.81 549.83c-26.95,0 -48.81,-21.86 -48.81,-48.81 0,-26.97 21.86,-48.83 48.81,-48.83 26.96,0 48.82,21.86 48.82,48.83 0,26.95 -21.86,48.81 -48.82,48.81z"/>
   <path class="fil0" d="M679.23 874.9c-26.96,0 -48.81,-21.86 -48.81,-48.83 0,-26.97 21.85,-48.81 48.81,-48.81 26.97,0 48.82,21.84 48.82,48.81 0,26.97 -21.85,48.83 -48.82,48.83z"/>
   <path class="fil0" d="M373.53 874.9c-26.98,0 -48.81,-21.86 -48.81,-48.83 0,-26.97 21.83,-48.81 48.81,-48.81 26.96,0 48.8,21.84 48.8,48.81 0,26.97 -21.84,48.83 -48.8,48.83z"/>
   <path class="fil0" d="M67.81 874.9c-26.95,0 -48.81,-21.86 -48.81,-48.83 0,-26.97 21.86,-48.81 48.81,-48.81 26.96,0 48.82,21.84 48.82,48.81 0,26.97 -21.86,48.83 -48.82,48.83z"/>
  </g>
 </g>
</svg>
