<?xml version="1.0" encoding="UTF-8"?>
<!DOCTYPE svg PUBLIC "-//W3C//DTD SVG 1.1//EN" "http://www.w3.org/Graphics/SVG/1.1/DTD/svg11.dtd">
<!-- Creator: CorelDRAW 2018 (64-Bit) -->
<svg xmlns="http://www.w3.org/2000/svg" xml:space="preserve" width="2000px" height="1000px" version="1.1" style="shape-rendering:geometricPrecision; text-rendering:geometricPrecision; image-rendering:optimizeQuality; fill-rule:evenodd; clip-rule:evenodd"
viewBox="0 0 2000 1000"
 xmlns:xlink="http://www.w3.org/1999/xlink">
 <defs>
  <style type="text/css">
   <![CDATA[
    .fil0 {fill:white;fill-rule:nonzero}
   ]]>
  </style>
 </defs>
 <g id="Layer_x0020_1">
  <metadata id="CorelCorpID_0Corel-Layer"/>
  <path class="fil0" d="M1762.46 88.17c-18.2,0 -32.94,-14.74 -32.94,-32.95 0,-18.2 14.74,-32.96 32.94,-32.96 18.21,0 32.95,14.76 32.95,32.96 0,18.21 -14.74,32.95 -32.95,32.95z"/>
  <path class="fil0" d="M1556.11 88.17c-18.2,0 -32.96,-14.74 -32.96,-32.95 0,-18.2 14.76,-32.96 32.96,-32.96 18.2,0 32.95,14.76 32.95,32.96 0,18.21 -14.75,32.95 -32.95,32.95z"/>
  <path class="fil0" d="M1349.75 88.17c-18.21,0 -32.95,-14.74 -32.95,-32.95 0,-18.2 14.74,-32.96 32.95,-32.96 18.2,0 32.94,14.76 32.94,32.96 0,18.21 -14.74,32.95 -32.94,32.95z"/>
  <path class="fil0" d="M1143.38 88.17c-18.19,0 -32.94,-14.74 -32.94,-32.95 0,-18.2 14.75,-32.96 32.94,-32.96 18.21,0 32.96,14.76 32.96,32.96 0,18.21 -14.75,32.95 -32.96,32.95z"/>
  <path class="fil0" d="M937.03 88.17c-18.21,0 -32.95,-14.74 -32.95,-32.95 0,-18.2 14.74,-32.96 32.95,-32.96 18.2,0 32.94,14.76 32.94,32.96 0,18.21 -14.74,32.95 -32.94,32.95z"/>
  <path class="fil0" d="M1762.46 307.59c-18.2,0 -32.94,-14.75 -32.94,-32.96 0,-18.19 14.74,-32.94 32.94,-32.94 18.21,0 32.95,14.75 32.95,32.94 0,18.21 -14.74,32.96 -32.95,32.96z"/>
  <path class="fil0" d="M1556.11 307.59c-18.2,0 -32.96,-14.75 -32.96,-32.96 0,-18.19 14.76,-32.94 32.96,-32.94 18.2,0 32.95,14.75 32.95,32.94 0,18.21 -14.75,32.96 -32.95,32.96z"/>
  <path class="fil0" d="M1349.75 307.59c-18.21,0 -32.95,-14.75 -32.95,-32.96 0,-18.19 14.74,-32.94 32.95,-32.94 18.2,0 32.94,14.75 32.94,32.94 0,18.21 -14.74,32.96 -32.94,32.96z"/>
  <path class="fil0" d="M1143.38 307.59c-18.19,0 -32.94,-14.75 -32.94,-32.96 0,-18.19 14.75,-32.94 32.94,-32.94 18.21,0 32.96,14.75 32.96,32.94 0,18.21 -14.75,32.96 -32.96,32.96z"/>
  <path class="fil0" d="M937.03 307.59c-18.21,0 -32.95,-14.75 -32.95,-32.96 0,-18.19 14.74,-32.94 32.95,-32.94 18.2,0 32.94,14.75 32.94,32.94 0,18.21 -14.74,32.96 -32.94,32.96z"/>
  <path class="fil0" d="M730.66 88.17c-18.19,0 -32.94,-14.74 -32.94,-32.95 0,-18.2 14.75,-32.96 32.94,-32.96 18.21,0 32.96,14.76 32.96,32.96 0,18.21 -14.75,32.95 -32.96,32.95z"/>
  <path class="fil0" d="M524.31 88.17c-18.21,0 -32.95,-14.74 -32.95,-32.95 0,-18.2 14.74,-32.96 32.95,-32.96 18.2,0 32.95,14.76 32.95,32.96 0,18.21 -14.75,32.95 -32.95,32.95z"/>
  <path class="fil0" d="M317.94 88.17c-18.19,0 -32.94,-14.74 -32.94,-32.95 0,-18.2 14.75,-32.96 32.94,-32.96 18.21,0 32.96,14.76 32.96,32.96 0,18.21 -14.75,32.95 -32.96,32.95z"/>
  <path class="fil0" d="M730.66 307.59c-18.19,0 -32.94,-14.75 -32.94,-32.96 0,-18.19 14.75,-32.94 32.94,-32.94 18.21,0 32.96,14.75 32.96,32.94 0,18.21 -14.75,32.96 -32.96,32.96z"/>
  <path class="fil0" d="M524.31 307.59c-18.21,0 -32.95,-14.75 -32.95,-32.96 0,-18.19 14.74,-32.94 32.95,-32.94 18.2,0 32.95,14.75 32.95,32.94 0,18.21 -14.75,32.96 -32.95,32.96z"/>
  <path class="fil0" d="M317.94 307.59c-18.19,0 -32.94,-14.75 -32.94,-32.96 0,-18.19 14.75,-32.94 32.94,-32.94 18.21,0 32.96,14.75 32.96,32.94 0,18.21 -14.75,32.96 -32.96,32.96z"/>
  <path class="fil0" d="M1762.46 527c-18.2,0 -32.94,-14.74 -32.94,-32.94 0,-18.21 14.74,-32.95 32.94,-32.95 18.21,0 32.95,14.74 32.95,32.95 0,18.2 -14.74,32.94 -32.95,32.94z"/>
  <path class="fil0" d="M1556.11 527c-18.2,0 -32.96,-14.74 -32.96,-32.94 0,-18.21 14.76,-32.95 32.96,-32.95 18.2,0 32.95,14.74 32.95,32.95 0,18.2 -14.75,32.94 -32.95,32.94z"/>
  <path class="fil0" d="M1349.75 527c-18.21,0 -32.95,-14.74 -32.95,-32.94 0,-18.21 14.74,-32.95 32.95,-32.95 18.2,0 32.94,14.74 32.94,32.95 0,18.2 -14.74,32.94 -32.94,32.94z"/>
  <path class="fil0" d="M1143.38 527c-18.19,0 -32.94,-14.74 -32.94,-32.94 0,-18.21 14.75,-32.95 32.94,-32.95 18.21,0 32.96,14.74 32.96,32.95 0,18.2 -14.75,32.94 -32.96,32.94z"/>
  <path class="fil0" d="M937.03 527c-18.21,0 -32.95,-14.74 -32.95,-32.94 0,-18.21 14.74,-32.95 32.95,-32.95 18.2,0 32.94,14.74 32.94,32.95 0,18.2 -14.74,32.94 -32.94,32.94z"/>
  <path class="fil0" d="M1762.46 746.43c-18.2,0 -32.94,-14.76 -32.94,-32.95 0,-18.2 14.74,-32.95 32.94,-32.95 18.21,0 32.95,14.75 32.95,32.95 0,18.19 -14.74,32.95 -32.95,32.95z"/>
  <path class="fil0" d="M1556.11 746.43c-18.2,0 -32.96,-14.76 -32.96,-32.95 0,-18.2 14.76,-32.95 32.96,-32.95 18.2,0 32.95,14.75 32.95,32.95 0,18.19 -14.75,32.95 -32.95,32.95z"/>
  <path class="fil0" d="M1349.75 746.43c-18.21,0 -32.95,-14.76 -32.95,-32.95 0,-18.2 14.74,-32.95 32.95,-32.95 18.2,0 32.94,14.75 32.94,32.95 0,18.19 -14.74,32.95 -32.94,32.95z"/>
  <path class="fil0" d="M1143.38 746.43c-18.19,0 -32.94,-14.76 -32.94,-32.95 0,-18.2 14.75,-32.96 32.94,-32.96 18.21,0 32.96,14.76 32.96,32.96 0,18.19 -14.75,32.95 -32.96,32.95z"/>
  <path class="fil0" d="M937.03 746.43c-18.21,0 -32.95,-14.76 -32.95,-32.95 0,-18.2 14.74,-32.96 32.95,-32.96 18.2,0 32.94,14.76 32.94,32.96 0,18.19 -14.74,32.95 -32.94,32.95z"/>
  <path class="fil0" d="M1762.46 965.85c-18.2,0 -32.94,-14.75 -32.94,-32.96 0,-18.2 14.74,-32.94 32.94,-32.94 18.21,0 32.95,14.74 32.95,32.94 0,18.21 -14.74,32.96 -32.95,32.96z"/>
  <path class="fil0" d="M1556.11 965.85c-18.2,0 -32.96,-14.75 -32.96,-32.96 0,-18.2 14.76,-32.94 32.96,-32.94 18.2,0 32.95,14.74 32.95,32.94 0,18.21 -14.75,32.96 -32.95,32.96z"/>
  <path class="fil0" d="M1349.75 965.85c-18.21,0 -32.95,-14.75 -32.95,-32.96 0,-18.2 14.74,-32.94 32.95,-32.94 18.2,0 32.94,14.74 32.94,32.94 0,18.21 -14.74,32.96 -32.94,32.96z"/>
  <path class="fil0" d="M1143.38 965.85c-18.19,0 -32.94,-14.75 -32.94,-32.96 0,-18.2 14.75,-32.94 32.94,-32.94 18.21,0 32.96,14.74 32.96,32.94 0,18.21 -14.75,32.96 -32.96,32.96z"/>
  <path class="fil0" d="M937.03 965.85c-18.21,0 -32.95,-14.75 -32.95,-32.96 0,-18.2 14.74,-32.94 32.95,-32.94 18.2,0 32.94,14.74 32.94,32.94 0,18.21 -14.74,32.96 -32.94,32.96z"/>
  <path class="fil0" d="M730.66 527c-18.19,0 -32.94,-14.74 -32.94,-32.94 0,-18.21 14.75,-32.95 32.94,-32.95 18.21,0 32.96,14.74 32.96,32.95 0,18.2 -14.75,32.94 -32.96,32.94z"/>
  <path class="fil0" d="M524.31 527c-18.21,0 -32.95,-14.74 -32.95,-32.94 0,-18.21 14.74,-32.95 32.95,-32.95 18.2,0 32.95,14.74 32.95,32.95 0,18.2 -14.75,32.94 -32.95,32.94z"/>
  <path class="fil0" d="M317.94 527c-18.19,0 -32.94,-14.74 -32.94,-32.94 0,-18.21 14.75,-32.95 32.94,-32.95 18.21,0 32.96,14.74 32.96,32.95 0,18.2 -14.75,32.94 -32.96,32.94z"/>
  <path class="fil0" d="M730.66 746.43c-18.19,0 -32.94,-14.76 -32.94,-32.95 0,-18.2 14.75,-32.96 32.94,-32.96 18.21,0 32.96,14.76 32.96,32.96 0,18.19 -14.75,32.95 -32.96,32.95z"/>
  <path class="fil0" d="M524.31 746.43c-18.21,0 -32.95,-14.76 -32.95,-32.95 0,-18.2 14.74,-32.96 32.95,-32.96 18.2,0 32.95,14.76 32.95,32.96 0,18.19 -14.75,32.95 -32.95,32.95z"/>
  <path class="fil0" d="M317.94 746.43c-18.19,0 -32.94,-14.76 -32.94,-32.95 0,-18.2 14.75,-32.96 32.94,-32.96 18.21,0 32.96,14.76 32.96,32.96 0,18.19 -14.75,32.95 -32.96,32.95z"/>
  <path class="fil0" d="M730.66 965.85c-18.19,0 -32.94,-14.75 -32.94,-32.96 0,-18.2 14.75,-32.94 32.94,-32.94 18.21,0 32.96,14.74 32.96,32.94 0,18.21 -14.75,32.96 -32.96,32.96z"/>
  <path class="fil0" d="M524.31 965.85c-18.21,0 -32.95,-14.75 -32.95,-32.96 0,-18.2 14.74,-32.94 32.95,-32.94 18.2,0 32.95,14.74 32.95,32.94 0,18.21 -14.75,32.96 -32.95,32.96z"/>
  <path class="fil0" d="M317.94 965.85c-18.19,0 -32.94,-14.75 -32.94,-32.96 0,-18.2 14.75,-32.94 32.94,-32.94 18.21,0 32.96,14.74 32.96,32.94 0,18.21 -14.75,32.96 -32.96,32.96z"/>
 </g>
</svg>
