<?xml version="1.0" encoding="UTF-8"?>
<!DOCTYPE svg PUBLIC "-//W3C//DTD SVG 1.1//EN" "http://www.w3.org/Graphics/SVG/1.1/DTD/svg11.dtd">
<!-- Creator: CorelDRAW 2018 (64-Bit) -->
<svg xmlns="http://www.w3.org/2000/svg" xml:space="preserve" width="91.44mm" height="162.56mm" version="1.1" style="shape-rendering:geometricPrecision; text-rendering:geometricPrecision; image-rendering:optimizeQuality; fill-rule:evenodd; clip-rule:evenodd"
viewBox="0 0 9144 16256"
 xmlns:xlink="http://www.w3.org/1999/xlink">
 <defs>
  <style type="text/css">
   <![CDATA[
    .fil0 {fill:white;fill-rule:nonzero}
   ]]>
  </style>
 </defs>
 <g id="Layer_x0020_1">
  <metadata id="CorelCorpID_0Corel-Layer"/>
  <path class="fil0" d="M8261.66 8149.32c-159.13,0 -288.18,-128.96 -288.18,-288.19 0,-159.26 129.05,-288.19 288.18,-288.19 159.24,0 288.29,128.93 288.29,288.19 0,159.23 -129.05,288.19 -288.29,288.19z"/>
  <path class="fil0" d="M6456.6 8149.32c-159.23,0 -288.19,-128.96 -288.19,-288.19 0,-159.26 128.96,-288.19 288.19,-288.19 159.27,0 288.19,128.93 288.19,288.19 0,159.23 -128.92,288.19 -288.19,288.19z"/>
  <path class="fil0" d="M8261.66 10068.69c-159.13,0 -288.18,-129.05 -288.18,-288.19 0,-159.23 129.05,-288.28 288.18,-288.28 159.24,0 288.29,129.05 288.29,288.28 0,159.14 -129.05,288.19 -288.29,288.19z"/>
  <path class="fil0" d="M6456.6 10068.69c-159.23,0 -288.19,-129.05 -288.19,-288.19 0,-159.23 128.96,-288.28 288.19,-288.28 159.27,0 288.19,129.05 288.19,288.28 0,159.14 -128.92,288.19 -288.19,288.19z"/>
  <path class="fil0" d="M8261.66 11988.1c-159.13,0 -288.18,-129.05 -288.18,-288.32 0,-159.23 129.05,-288.19 288.18,-288.19 159.24,0 288.29,128.96 288.29,288.19 0,159.27 -129.05,288.32 -288.29,288.32z"/>
  <path class="fil0" d="M6456.6 11988.1c-159.23,0 -288.19,-129.05 -288.19,-288.32 0,-159.23 128.96,-288.19 288.19,-288.19 159.27,0 288.19,128.96 288.19,288.19 0,159.27 -128.92,288.32 -288.19,288.32z"/>
  <path class="fil0" d="M4651.45 8149.32c-159.14,0 -288.19,-128.96 -288.19,-288.19 0,-159.26 129.05,-288.19 288.19,-288.19 159.26,0 288.31,128.93 288.31,288.19 0,159.23 -129.05,288.19 -288.31,288.19z"/>
  <path class="fil0" d="M2846.42 8149.32c-159.27,0 -288.19,-128.96 -288.19,-288.19 0,-159.26 128.92,-288.19 288.19,-288.19 159.23,0 288.19,128.93 288.19,288.19 0,159.23 -128.96,288.19 -288.19,288.19z"/>
  <path class="fil0" d="M1041.26 8149.32c-159.14,0 -288.19,-128.96 -288.19,-288.19 0,-159.26 129.05,-288.19 288.19,-288.19 159.23,0 288.29,128.93 288.29,288.19 0,159.23 -129.06,288.19 -288.29,288.19z"/>
  <path class="fil0" d="M4651.45 10068.69c-159.14,0 -288.19,-129.05 -288.19,-288.19 0,-159.23 129.05,-288.28 288.19,-288.28 159.26,0 288.31,129.05 288.31,288.28 0,159.14 -129.05,288.19 -288.31,288.19z"/>
  <path class="fil0" d="M2846.42 10068.69c-159.27,0 -288.19,-129.05 -288.19,-288.19 0,-159.23 128.92,-288.28 288.19,-288.28 159.23,0 288.19,129.05 288.19,288.28 0,159.14 -128.96,288.19 -288.19,288.19z"/>
  <path class="fil0" d="M1041.26 10068.69c-159.14,0 -288.19,-129.05 -288.19,-288.19 0,-159.23 129.05,-288.28 288.19,-288.28 159.23,0 288.29,129.05 288.29,288.28 0,159.14 -129.06,288.19 -288.29,288.19z"/>
  <path class="fil0" d="M4651.45 11988.1c-159.14,0 -288.19,-129.05 -288.19,-288.32 0,-159.23 129.05,-288.19 288.19,-288.19 159.26,0 288.31,128.96 288.31,288.19 0,159.27 -129.05,288.32 -288.31,288.32z"/>
  <path class="fil0" d="M2846.42 11988.1c-159.27,0 -288.19,-129.05 -288.19,-288.32 0,-159.23 128.92,-288.19 288.19,-288.19 159.23,0 288.19,128.96 288.19,288.19 0,159.27 -128.96,288.32 -288.19,288.32z"/>
  <path class="fil0" d="M1041.26 11988.1c-159.14,0 -288.19,-129.05 -288.19,-288.32 0,-159.23 129.05,-288.19 288.19,-288.19 159.23,0 288.29,128.96 288.29,288.19 0,159.27 -129.06,288.32 -288.29,288.32z"/>
 </g>
</svg>
