<?xml version="1.0" encoding="UTF-8"?>
<!DOCTYPE svg PUBLIC "-//W3C//DTD SVG 1.1//EN" "http://www.w3.org/Graphics/SVG/1.1/DTD/svg11.dtd">
<!-- Creator: CorelDRAW 2018 (64-Bit) -->
<svg xmlns="http://www.w3.org/2000/svg" xml:space="preserve" width="91.44mm" height="162.56mm" version="1.1" style="shape-rendering:geometricPrecision; text-rendering:geometricPrecision; image-rendering:optimizeQuality; fill-rule:evenodd; clip-rule:evenodd"
viewBox="0 0 9144 16256"
 xmlns:xlink="http://www.w3.org/1999/xlink">
 <defs>
  <style type="text/css">
   <![CDATA[
    .fil0 {fill:white;fill-rule:nonzero}
   ]]>
  </style>
 </defs>
 <g id="Layer_x0020_1">
  <metadata id="CorelCorpID_0Corel-Layer"/>
  <path class="fil0" d="M7858.33 7909.03c-116.28,0 -210.5,-94.22 -210.5,-210.41 0,-116.26 94.22,-210.48 210.5,-210.48 116.18,0 210.41,94.22 210.41,210.48 0,116.19 -94.23,210.41 -210.41,210.41z"/>
  <path class="fil0" d="M6540.38 7909.03c-116.28,0 -210.41,-94.22 -210.41,-210.41 0,-116.26 94.13,-210.48 210.41,-210.48 116.25,0 210.41,94.22 210.41,210.48 0,116.19 -94.16,210.41 -210.41,210.41z"/>
  <path class="fil0" d="M5222.43 7909.03c-116.19,0 -210.41,-94.22 -210.41,-210.41 0,-116.26 94.22,-210.48 210.41,-210.48 116.26,0 210.48,94.22 210.48,210.48 0,116.19 -94.22,210.41 -210.48,210.41z"/>
  <path class="fil0" d="M3904.55 7909.03c-116.26,0 -210.41,-94.22 -210.41,-210.41 0,-116.26 94.15,-210.48 210.41,-210.48 116.28,0 210.41,94.22 210.41,210.48 0,116.19 -94.13,210.41 -210.41,210.41z"/>
  <path class="fil0" d="M7858.33 9310.39c-116.28,0 -210.5,-94.22 -210.5,-210.5 0,-116.26 94.22,-210.41 210.5,-210.41 116.18,0 210.41,94.15 210.41,210.41 0,116.28 -94.23,210.5 -210.41,210.5z"/>
  <path class="fil0" d="M6540.38 9310.39c-116.28,0 -210.41,-94.22 -210.41,-210.5 0,-116.26 94.13,-210.41 210.41,-210.41 116.25,0 210.41,94.15 210.41,210.41 0,116.28 -94.16,210.5 -210.41,210.5z"/>
  <path class="fil0" d="M5222.43 9310.39c-116.19,0 -210.41,-94.22 -210.41,-210.5 0,-116.26 94.22,-210.41 210.41,-210.41 116.26,0 210.48,94.15 210.48,210.41 0,116.28 -94.22,210.5 -210.48,210.5z"/>
  <path class="fil0" d="M3904.55 9310.39c-116.26,0 -210.41,-94.22 -210.41,-210.5 0,-116.26 94.15,-210.41 210.41,-210.41 116.28,0 210.41,94.15 210.41,210.41 0,116.28 -94.13,210.5 -210.41,210.5z"/>
  <path class="fil0" d="M2586.6 7909.03c-116.18,0 -210.41,-94.22 -210.41,-210.41 0,-116.26 94.23,-210.48 210.41,-210.48 116.28,0 210.5,94.22 210.5,210.48 0,116.19 -94.22,210.41 -210.5,210.41z"/>
  <path class="fil0" d="M1268.75 7909.03c-116.28,0 -210.41,-94.22 -210.41,-210.41 0,-116.26 94.13,-210.48 210.41,-210.48 116.25,0 210.4,94.22 210.4,210.48 0,116.19 -94.15,210.41 -210.4,210.41z"/>
  <path class="fil0" d="M2586.6 9310.39c-116.18,0 -210.41,-94.22 -210.41,-210.5 0,-116.26 94.23,-210.41 210.41,-210.41 116.28,0 210.5,94.15 210.5,210.41 0,116.28 -94.22,210.5 -210.5,210.5z"/>
  <path class="fil0" d="M1268.75 9310.39c-116.28,0 -210.41,-94.22 -210.41,-210.5 0,-116.26 94.13,-210.41 210.41,-210.41 116.25,0 210.4,94.15 210.4,210.41 0,116.28 -94.15,210.5 -210.4,210.5z"/>
 </g>
</svg>
