<?xml version="1.0" encoding="UTF-8"?>
<!DOCTYPE svg PUBLIC "-//W3C//DTD SVG 1.1//EN" "http://www.w3.org/Graphics/SVG/1.1/DTD/svg11.dtd">
<!-- Creator: CorelDRAW 2018 (64-Bit) -->
<svg xmlns="http://www.w3.org/2000/svg" xml:space="preserve" width="4000px" height="2000px" version="1.1" style="shape-rendering:geometricPrecision; text-rendering:geometricPrecision; image-rendering:optimizeQuality; fill-rule:evenodd; clip-rule:evenodd"
viewBox="0 0 4000 2000"
 xmlns:xlink="http://www.w3.org/1999/xlink">
 <defs>
  <style type="text/css">
   <![CDATA[
    .str0 {stroke:white;stroke-width:12;stroke-miterlimit:22.9256}
    .fil0 {fill:none;fill-rule:nonzero}
    .fil1 {fill:white;fill-rule:nonzero}
   ]]>
  </style>
 </defs>
 <g id="Layer_x0020_1">
  <metadata id="CorelCorpID_0Corel-Layer"/>
  <polygon class="fil0 str0" points="260.33,1051.44 260.33,523.8 105.71,523.8 105.71,360.49 603.39,360.49 603.39,523.8 448.77,523.8 448.77,1051.44 "/>
  <path id="1" class="fil0 str0" d="M933.56 751.87c-3.22,-27.06 -13.52,-48.81 -30.92,-65.23 -17.55,-16.43 -38.98,-24.65 -64.59,-24.65 -27.38,0 -49.28,7.41 -65.55,22.39 -16.1,14.98 -26.89,37.53 -32.37,67.49l193.43 0zm165.25 94.7l-362.38 0c0.32,36.72 9.82,65.07 28.34,85.04 18.68,19.97 44.94,29.96 78.92,29.96 25.61,0 47.03,-4.84 64.59,-14.34 17.39,-9.66 30.76,-23.83 39.94,-42.68l126.43 50.9c-15.14,36.56 -41.87,64.74 -80.21,84.55 -38.49,19.81 -85.52,29.8 -141.25,29.8 -83.1,0 -149.78,-23.03 -199.87,-69.1 -50.25,-46.22 -75.38,-106.94 -75.38,-182.48 0,-74.25 25.13,-135.93 75.22,-185.06 50.25,-49.12 113.71,-73.6 190.37,-73.6 78.92,0 141.25,24.8 186.83,74.57 45.58,49.77 68.45,117.9 68.45,204.39l0 8.05z"/>
  <path id="2" class="fil0 str0" d="M1195.29 1051.44l0 -476.42 153.97 0 0 96.64c22.23,-38.82 48,-67.16 77.31,-85.2 29.15,-17.88 64.26,-26.9 105.01,-26.9 30.93,0 58.31,4.99 82.3,14.82 24,9.98 43.65,24.16 58.63,42.84 12.72,15.94 21.58,35.59 26.9,58.46 5.31,23.04 8.05,57.34 8.05,102.92l0 272.84 -168.15 0 0 -255.28c0,-38.17 -6.28,-65.72 -18.68,-83.11 -12.4,-17.23 -32.21,-25.93 -59.59,-25.93 -34.95,0 -60.4,12.88 -76.51,38.65 -15.94,25.77 -23.99,67.65 -23.99,125.63l0 200.04 -165.25 0z"/>
  <polygon id="3" class="fil0 str0" points="1852.25,1051.44 1852.25,693.88 1780.74,693.88 1780.74,575.02 1852.25,575.02 1852.25,432.97 2017.5,432.97 2017.5,575.02 2089.01,575.02 2089.01,693.88 2017.5,693.88 2017.5,1051.44 "/>
  <path id="4" class="fil0 str0" d="M2530.48 812.75c0,-37.21 -9.82,-66.52 -29.63,-88.27 -19.81,-21.74 -46.87,-32.53 -81.18,-32.53 -34.3,0 -61.2,10.79 -80.85,32.37 -19.65,21.43 -29.47,51.06 -29.47,88.43 0,37.04 9.82,66.35 29.63,87.77 19.81,21.43 46.71,32.06 80.69,32.06 34.31,0 61.37,-10.63 81.18,-32.06 19.81,-21.42 29.63,-50.73 29.63,-87.77zm148.02 -237.73l0 476.42 -154.62 0 0 -77.31c-22.07,33.02 -46.71,57.18 -74.25,72.64 -27.54,15.3 -59.91,23.03 -96.96,23.03 -63.62,0 -114.35,-23.19 -152.52,-69.58 -38.01,-46.38 -57.02,-108.71 -57.02,-186.67 0,-77.79 19.97,-139.48 59.76,-185.38 39.78,-45.74 93.25,-68.61 160.57,-68.61 35.92,0 66.84,7.73 92.77,23.03 25.93,15.3 48.16,38.82 66.68,70.71l0 -78.28 155.59 0z"/>
  <path id="5" class="fil0 str0" d="M2805.25 1051.44l0 -476.42 153.98 0 0 96.64c22.22,-38.82 47.99,-67.16 77.31,-85.2 29.15,-17.88 64.26,-26.9 105.01,-26.9 30.92,0 58.3,4.99 82.3,14.82 24,9.98 43.65,24.16 58.63,42.84 12.72,15.94 21.58,35.59 26.89,58.46 5.32,23.04 8.06,57.34 8.06,102.92l0 272.84 -168.15 0 0 -255.28c0,-38.17 -6.28,-65.72 -18.68,-83.11 -12.41,-17.23 -32.22,-25.93 -59.6,-25.93 -34.95,0 -60.4,12.88 -76.5,38.65 -15.95,25.77 -24,67.65 -24,125.63l0 200.04 -165.25 0z"/>
  <path id="6" class="fil0 str0" d="M3799.32 811.78c0,-36.72 -9.82,-65.55 -29.47,-86.49 -19.65,-20.94 -46.71,-31.41 -81.34,-31.41 -34.95,0 -62.33,10.47 -82.3,31.41 -19.97,20.94 -29.96,49.77 -29.96,86.49 0,36.4 9.99,65.23 29.96,86.33 19.97,21.1 47.35,31.57 82.3,31.57 34.31,0 61.36,-10.47 81.17,-31.57 19.65,-21.1 29.64,-49.93 29.64,-86.33zm148.01 -236.76l0 475.61c0,72.16 -21.9,125.31 -65.87,159.78 -43.81,34.46 -111.78,51.7 -203.58,51.7 -74.41,0 -132.55,-13.85 -174.75,-41.4 -42.2,-27.54 -64.43,-66.68 -67,-117.09l173.94 0c2.58,14.82 10.79,26.42 24.81,34.79 14.01,8.38 32.53,12.56 55.4,12.56 36.24,0 61.2,-8.69 74.73,-26.09 13.69,-17.55 20.62,-54.11 20.62,-110.16l0 -43.49c-17.56,29.96 -40.1,52.35 -67.48,67 -27.39,14.66 -59.92,21.91 -97.61,21.91 -62.97,0 -113.38,-22.71 -151.56,-68.29 -38.01,-45.42 -57.01,-106.14 -57.01,-182 0,-76.51 19.97,-137.39 59.75,-182.48 39.78,-45.26 93.26,-67.81 160.58,-67.81 35.59,0 66.2,7.41 92.29,22.23 25.93,14.81 48.32,38.01 67.16,69.57l0 -76.34 155.58 0z"/>
  <polygon class="fil1" points="230.19,982.25 230.19,454.61 75.57,454.61 75.57,291.3 573.24,291.3 573.24,454.61 418.63,454.61 418.63,982.25 "/>
  <path id="1" class="fil1" d="M903.42 682.67c-3.22,-27.05 -13.53,-48.8 -30.92,-65.22 -17.56,-16.43 -38.98,-24.65 -64.59,-24.65 -27.38,0 -49.28,7.41 -65.55,22.39 -16.11,14.98 -26.9,37.53 -32.37,67.48l193.43 0zm165.25 94.71l-362.39 0c0.32,36.72 9.83,65.07 28.35,85.04 18.68,19.97 44.93,29.95 78.92,29.95 25.61,0 47.03,-4.83 64.58,-14.33 17.4,-9.66 30.77,-23.84 39.95,-42.68l126.43 50.9c-15.14,36.56 -41.88,64.74 -80.21,84.55 -38.49,19.81 -85.52,29.8 -141.25,29.8 -83.11,0 -149.79,-23.03 -199.88,-69.1 -50.25,-46.22 -75.37,-106.94 -75.37,-182.48 0,-74.25 25.12,-135.93 75.21,-185.06 50.25,-49.12 113.71,-73.6 190.38,-73.6 78.92,0 141.25,24.8 186.83,74.57 45.58,49.77 68.45,117.9 68.45,204.39l0 8.05z"/>
  <path id="2" class="fil1" d="M1165.14 982.25l0 -476.42 153.98 0 0 96.64c22.22,-38.82 47.99,-67.17 77.31,-85.2 29.15,-17.88 64.26,-26.9 105.01,-26.9 30.92,0 58.3,4.99 82.3,14.81 24,9.99 43.65,24.16 58.63,42.85 12.72,15.94 21.58,35.59 26.89,58.46 5.32,23.03 8.06,57.34 8.06,102.92l0 272.84 -168.15 0 0 -255.28c0,-38.18 -6.28,-65.72 -18.68,-83.11 -12.41,-17.24 -32.22,-25.93 -59.6,-25.93 -34.95,0 -60.39,12.88 -76.5,38.65 -15.94,25.77 -24,67.65 -24,125.63l0 200.04 -165.25 0z"/>
  <polygon id="3" class="fil1" points="1822.11,982.25 1822.11,624.69 1750.6,624.69 1750.6,505.83 1822.11,505.83 1822.11,363.77 1987.36,363.77 1987.36,505.83 2058.87,505.83 2058.87,624.69 1987.36,624.69 1987.36,982.25 "/>
  <path id="4" class="fil1" d="M2500.34 743.55c0,-37.2 -9.83,-66.51 -29.64,-88.26 -19.81,-21.74 -46.86,-32.53 -81.17,-32.53 -34.31,0 -61.2,10.79 -80.85,32.37 -19.65,21.42 -29.48,51.06 -29.48,88.42 0,37.05 9.83,66.36 29.64,87.78 19.81,21.42 46.7,32.05 80.69,32.05 34.31,0 61.36,-10.63 81.17,-32.05 19.81,-21.42 29.64,-50.73 29.64,-87.78zm148.01 -237.72l0 476.42 -154.61 0 0 -77.31c-22.07,33.02 -46.71,57.17 -74.25,72.64 -27.55,15.3 -59.92,23.03 -96.96,23.03 -63.62,0 -114.36,-23.19 -152.53,-69.58 -38.01,-46.39 -57.01,-108.72 -57.01,-186.67 0,-77.79 19.97,-139.48 59.75,-185.38 39.78,-45.74 93.25,-68.61 160.58,-68.61 35.92,0 66.84,7.73 92.77,23.03 25.93,15.3 48.16,38.82 66.68,70.7l0 -78.27 155.58 0z"/>
  <path id="5" class="fil1" d="M2775.11 982.25l0 -476.42 153.97 0 0 96.64c22.23,-38.82 48,-67.17 77.31,-85.2 29.15,-17.88 64.27,-26.9 105.01,-26.9 30.93,0 58.31,4.99 82.3,14.81 24,9.99 43.65,24.16 58.63,42.85 12.73,15.94 21.58,35.59 26.9,58.46 5.31,23.03 8.05,57.34 8.05,102.92l0 272.84 -168.15 0 0 -255.28c0,-38.18 -6.28,-65.72 -18.68,-83.11 -12.4,-17.24 -32.21,-25.93 -59.59,-25.93 -34.95,0 -60.4,12.88 -76.51,38.65 -15.94,25.77 -23.99,67.65 -23.99,125.63l0 200.04 -165.25 0z"/>
  <path id="6" class="fil1" d="M3769.18 742.59c0,-36.72 -9.83,-65.55 -29.48,-86.49 -19.65,-20.94 -46.71,-31.41 -81.33,-31.41 -34.95,0 -62.33,10.47 -82.31,31.41 -19.97,20.94 -29.95,49.77 -29.95,86.49 0,36.4 9.98,65.23 29.95,86.33 19.98,21.1 47.36,31.57 82.31,31.57 34.3,0 61.36,-10.47 81.17,-31.57 19.65,-21.1 29.64,-49.93 29.64,-86.33zm148.01 -236.76l0 475.61c0,72.16 -21.9,125.31 -65.87,159.77 -43.81,34.47 -111.78,51.7 -203.58,51.7 -74.41,0 -132.56,-13.85 -174.76,-41.39 -42.19,-27.54 -64.42,-66.68 -67,-117.09l173.95 0c2.58,14.82 10.79,26.42 24.8,34.79 14.01,8.38 32.54,12.56 55.41,12.56 36.24,0 61.2,-8.69 74.73,-26.09 13.69,-17.55 20.62,-54.11 20.62,-110.16l0 -43.49c-17.56,29.96 -40.11,52.34 -67.49,67 -27.38,14.66 -59.91,21.91 -97.6,21.91 -62.98,0 -113.39,-22.72 -151.56,-68.3 -38.01,-45.41 -57.02,-106.13 -57.02,-181.99 0,-76.51 19.98,-137.39 59.76,-182.49 39.78,-45.25 93.25,-67.8 160.58,-67.8 35.59,0 66.19,7.41 92.28,22.22 25.93,14.82 48.32,38.01 67.17,69.58l0 -76.34 155.58 0z"/>
 </g>
</svg>
