<?xml version="1.0" encoding="UTF-8"?>
<!DOCTYPE svg PUBLIC "-//W3C//DTD SVG 1.1//EN" "http://www.w3.org/Graphics/SVG/1.1/DTD/svg11.dtd">
<!-- Creator: CorelDRAW 2018 (64-Bit) -->
<svg xmlns="http://www.w3.org/2000/svg" xml:space="preserve" width="4000px" height="2000px" version="1.1" style="shape-rendering:geometricPrecision; text-rendering:geometricPrecision; image-rendering:optimizeQuality; fill-rule:evenodd; clip-rule:evenodd"
viewBox="0 0 4000 2000"
 xmlns:xlink="http://www.w3.org/1999/xlink">
 <defs>
  <style type="text/css">
   <![CDATA[
    .str0 {stroke:white;stroke-width:0.9;stroke-miterlimit:22.9256}
    .fil1 {fill:none;fill-rule:nonzero}
    .fil0 {fill:white;fill-rule:nonzero}
   ]]>
  </style>
 </defs>
 <g id="Layer_x0020_1">
  <metadata id="CorelCorpID_0Corel-Layer"/>
  <path class="fil0" d="M522.23 1018.18l0 -188.2 480.54 0c0.42,6.07 0.84,12.97 1.05,20.29 0.21,7.32 0.21,17.98 0.21,32.41 0,154.32 -40.78,273.94 -122.33,359.05 -81.35,85.11 -196.15,127.76 -344,127.76 -72.56,0 -137.38,-10.87 -193.84,-32.83 -56.67,-21.74 -107.07,-55.2 -151.61,-100.16 -42.45,-42.87 -75.49,-93.47 -99.12,-152.24 -23.42,-58.55 -35.13,-119.82 -35.13,-184.02 0,-66.91 11.5,-128.6 34.29,-184.64 22.8,-56.25 57.09,-106.65 102.26,-151.61 44.96,-43.7 96.61,-76.74 154.74,-99.33 58.35,-22.37 121.08,-33.67 188.41,-33.67 87.83,0 165.62,17.36 233.17,52.07 67.54,34.72 124.42,86.37 170.63,154.96l-212.04 101.63c-25.3,-34.72 -53.95,-60.44 -85.53,-77.38 -31.78,-16.93 -67.12,-25.51 -106.44,-25.51 -73.18,0 -130.9,24.47 -172.93,73.19 -42.03,48.93 -63.15,115.43 -63.15,200.12 0,85.32 21.12,152.45 63.15,201.38 42.03,49.14 99.75,73.61 172.93,73.61 62.11,0 113.97,-15.27 155.38,-45.59 41.61,-30.32 65.87,-70.68 72.77,-121.29l-243.41 0z"/>
  <path id="1" class="fil0" d="M1609.62 1038.26c0,-48.31 -12.76,-86.36 -38.48,-114.6 -25.72,-28.22 -60.85,-42.24 -105.39,-42.24 -44.54,0 -79.46,14.02 -104.98,42.04 -25.51,27.81 -38.26,66.29 -38.26,114.8 0,48.09 12.75,86.15 38.47,113.97 25.72,27.81 60.65,41.61 104.77,41.61 44.54,0 79.67,-13.8 105.39,-41.61 25.72,-27.82 38.48,-65.88 38.48,-113.97zm192.17 -308.65l0 618.55 -200.74 0 0 -100.37c-28.65,42.87 -60.65,74.24 -96.41,94.31 -35.75,19.87 -77.79,29.9 -125.88,29.9 -82.6,0 -148.47,-30.11 -198.03,-90.33 -49.35,-60.23 -74.03,-141.15 -74.03,-242.37 0,-101 25.93,-181.09 77.58,-240.68 51.65,-59.39 121.08,-89.09 208.49,-89.09 46.63,0 86.78,10.04 120.45,29.91 33.67,19.86 62.52,50.39 86.57,91.8l0 -101.63 202 0z"/>
  <polygon id="2" class="fil0" points="1972.64,1348.16 1972.64,398.37 2190.95,398.37 2190.95,1348.16 "/>
  <path id="3" class="fil0" d="M2784.42 959.21c-4.18,-35.13 -17.57,-63.36 -40.15,-84.69 -22.8,-21.33 -50.61,-31.99 -83.86,-31.99 -35.55,0 -63.99,9.62 -85.11,29.07 -20.91,19.44 -34.92,48.72 -42.03,87.61l251.15 0zm214.55 122.96l-470.51 0c0.42,47.68 12.76,84.48 36.81,110.41 24.25,25.94 58.34,38.9 102.46,38.9 33.25,0 61.06,-6.27 83.86,-18.61 22.58,-12.55 39.94,-30.95 51.86,-55.42l164.15 66.08c-19.66,47.47 -54.37,84.07 -104.14,109.79 -49.98,25.72 -111.04,38.68 -183.39,38.68 -107.9,0 -194.48,-29.9 -259.51,-89.71 -65.24,-60.01 -97.86,-138.85 -97.86,-236.92 0,-96.4 32.62,-176.49 97.65,-240.27 65.24,-63.78 147.64,-95.57 247.17,-95.57 102.47,0 183.4,32.21 242.58,96.82 59.17,64.62 88.87,153.07 88.87,265.37l0 10.45z"/>
  <path id="4" class="fil0" d="M3125.48 1348.16l0 -618.55 205.98 0 0 145.75c21.33,-53.32 50.18,-93.06 86.99,-119.61 36.8,-26.56 81.34,-39.94 133.62,-39.94 8.58,0 17.36,0.21 26.14,0.83 8.78,0.63 17.57,1.68 26.56,2.93l-21.33 198.24c-12.97,-4.39 -25.93,-7.53 -38.48,-9.62 -12.75,-1.88 -24.88,-2.93 -36.8,-2.93 -52.91,0 -93.68,16.31 -122.54,48.73 -28.65,32.41 -43.08,78.41 -43.08,138.01l0 256.16 -217.06 0z"/>
  <path id="5" class="fil0" d="M3679.84 536.39c0,-33.04 11.71,-61.06 35.34,-84.28 23.42,-23.21 51.65,-34.92 84.9,-34.92 34.3,0 62.94,11.5 85.95,34.3 23.21,22.79 34.71,51.02 34.71,84.9 0,33.87 -11.71,62.52 -35.34,86.15 -23.42,23.63 -51.86,35.55 -85.32,35.55 -32.83,0 -61.06,-12.13 -84.69,-36.18 -23.63,-24.04 -35.55,-52.48 -35.55,-85.52zm11.29 811.77l0 -618.55 218.32 0 0 618.55 -218.32 0z"/>
  <path class="fil1 str0" d="M561.37 1108.02l0 -188.21 480.54 0c0.42,6.07 0.84,12.97 1.04,20.29 0.21,7.32 0.21,17.98 0.21,32.41 0,154.33 -40.77,273.94 -122.33,359.05 -81.34,85.11 -196.15,127.77 -343.99,127.77 -72.56,0 -137.39,-10.88 -193.85,-32.83 -56.67,-21.75 -107.06,-55.21 -151.6,-100.17 -42.45,-42.87 -75.49,-93.47 -99.12,-152.23 -23.42,-58.56 -35.13,-119.83 -35.13,-184.02 0,-66.92 11.5,-128.61 34.29,-184.65 22.79,-56.25 57.09,-106.65 102.26,-151.61 44.96,-43.7 96.61,-76.74 154.74,-99.33 58.34,-22.37 121.08,-33.66 188.41,-33.66 87.83,0 165.62,17.35 233.16,52.07 67.55,34.71 124.42,86.36 170.64,154.95l-212.04 101.63c-25.3,-34.71 -53.95,-60.44 -85.53,-77.37 -31.78,-16.94 -67.12,-25.52 -106.44,-25.52 -73.19,0 -130.9,24.47 -172.93,73.19 -42.04,48.94 -63.16,115.43 -63.16,200.12 0,85.32 21.12,152.45 63.16,201.38 42.03,49.14 99.74,73.61 172.93,73.61 62.11,0 113.97,-15.27 155.37,-45.59 41.62,-30.32 65.87,-70.68 72.77,-121.28l-243.4 0z"/>
  <path id="1" class="fil1 str0" d="M1648.76 1128.09c0,-48.3 -12.76,-86.36 -38.48,-114.59 -25.72,-28.23 -60.85,-42.24 -105.39,-42.24 -44.55,0 -79.47,14.01 -104.98,42.03 -25.51,27.81 -38.27,66.29 -38.27,114.8 0,48.1 12.76,86.16 38.48,113.97 25.72,27.81 60.64,41.61 104.77,41.61 44.54,0 79.67,-13.8 105.39,-41.61 25.72,-27.81 38.48,-65.87 38.48,-113.97zm192.17 -308.65l0 618.56 -200.75 0 0 -100.38c-28.65,42.87 -60.64,74.24 -96.4,94.31 -35.76,19.87 -77.79,29.91 -125.89,29.91 -82.59,0 -148.46,-30.12 -198.02,-90.34 -49.36,-60.23 -74.03,-141.15 -74.03,-242.36 0,-101 25.93,-181.09 77.58,-240.69 51.65,-59.39 121.08,-89.08 208.49,-89.08 46.63,0 86.78,10.03 120.45,29.9 33.66,19.86 62.52,50.4 86.57,91.8l0 -101.63 202 0z"/>
  <polygon id="2" class="fil1 str0" points="2011.78,1438 2011.78,488.21 2230.09,488.21 2230.09,1438 "/>
  <path id="3" class="fil1 str0" d="M2823.55 1049.05c-4.18,-35.13 -17.56,-63.36 -40.14,-84.69 -22.8,-21.33 -50.61,-32 -83.86,-32 -35.55,0 -63.99,9.62 -85.11,29.07 -20.91,19.45 -34.92,48.72 -42.03,87.62l251.14 0zm214.56 122.95l-470.51 0c0.42,47.68 12.76,84.49 36.8,110.42 24.26,25.93 58.35,38.89 102.47,38.89 33.25,0 61.06,-6.27 83.85,-18.61 22.59,-12.55 39.94,-30.95 51.86,-55.41l164.16 66.08c-19.66,47.46 -54.37,84.06 -104.14,109.78 -49.98,25.72 -111.04,38.69 -183.39,38.69 -107.91,0 -194.48,-29.91 -259.51,-89.71 -65.25,-60.02 -97.87,-138.85 -97.87,-236.93 0,-96.4 32.62,-176.49 97.66,-240.27 65.24,-63.78 147.63,-95.56 247.17,-95.56 102.47,0 183.39,32.2 242.57,96.82 59.18,64.61 88.88,153.07 88.88,265.36l0 10.45z"/>
  <path id="4" class="fil1 str0" d="M3164.62 1438l0 -618.56 205.98 0 0 145.75c21.32,-53.32 50.18,-93.05 86.99,-119.61 36.8,-26.56 81.34,-39.94 133.62,-39.94 8.57,0 17.36,0.21 26.14,0.84 8.78,0.62 17.56,1.67 26.56,2.92l-21.33 198.24c-12.97,-4.39 -25.93,-7.53 -38.48,-9.62 -12.76,-1.88 -24.89,-2.92 -36.8,-2.92 -52.91,0 -93.69,16.31 -122.55,48.72 -28.64,32.41 -43.07,78.42 -43.07,138.01l0 256.17 -217.06 0z"/>
  <path id="5" class="fil1 str0" d="M3718.98 626.22c0,-33.04 11.71,-61.06 35.34,-84.27 23.42,-23.21 51.65,-34.93 84.9,-34.93 34.29,0 62.94,11.51 85.94,34.3 23.22,22.79 34.72,51.02 34.72,84.9 0,33.88 -11.71,62.52 -35.34,86.15 -23.42,23.63 -51.86,35.55 -85.32,35.55 -32.83,0 -61.06,-12.12 -84.69,-36.17 -23.63,-24.05 -35.55,-52.49 -35.55,-85.53zm11.29 811.78l0 -618.56 218.31 0 0 618.56 -218.31 0z"/>
 </g>
</svg>
