<?xml version="1.0" encoding="UTF-8"?>
<!DOCTYPE svg PUBLIC "-//W3C//DTD SVG 1.1//EN" "http://www.w3.org/Graphics/SVG/1.1/DTD/svg11.dtd">
<!-- Creator: CorelDRAW 2018 (64-Bit) -->
<svg xmlns="http://www.w3.org/2000/svg" xml:space="preserve" width="4000px" height="2000px" version="1.1" style="shape-rendering:geometricPrecision; text-rendering:geometricPrecision; image-rendering:optimizeQuality; fill-rule:evenodd; clip-rule:evenodd"
viewBox="0 0 4000 2000"
 xmlns:xlink="http://www.w3.org/1999/xlink">
 <defs>
  <style type="text/css">
   <![CDATA[
    .fil0 {fill:white;fill-rule:nonzero;fill-opacity:0.701961}
   ]]>
  </style>
 </defs>
 <g id="Layer_x0020_1">
  <metadata id="CorelCorpID_0Corel-Layer"/>
  <path class="fil0" d="M516.19 898.89l427.27 0.6c-3.57,151.31 -45.05,270.11 -125.02,355.98 -79.78,85.88 -188.14,128.91 -324.87,128.91 -134.55,0 -241.52,-36.69 -320.7,-109.87 -79.18,-73.18 -118.87,-171.35 -118.87,-294.51 0,-67.82 12.3,-132.28 36.71,-193.16 24.41,-61.08 59.34,-114.63 105.18,-160.64 43.46,-43.43 94.86,-76.55 154.4,-99.76 59.34,-23 123.83,-34.5 193.29,-34.5 81.37,0 152.41,16.26 213.34,48.78 60.72,32.73 113.51,82.7 157.96,150.13l-181.38 123.56c-21.24,-38.28 -47.63,-66.84 -79.38,-85.88 -31.56,-18.84 -68.47,-28.36 -110.74,-28.36 -71.24,0 -130.18,25.79 -176.62,77.15 -46.64,51.56 -69.86,116.61 -69.86,195.35 0,65.05 18.46,117.2 55.17,156.47 36.92,39.27 85.54,58.9 146.06,58.9 22.43,0 43.66,-2.57 63.71,-7.73 19.84,-5.36 38.3,-12.89 55.37,-23.01 15.28,-9.32 28.18,-21.02 39.09,-35.1 10.72,-14.08 19.45,-30.54 26.2,-49.58l-193.69 0 27.38 -173.73zm692.8 190.39c0,37.68 11.51,67.82 34.33,90.63 23.02,22.81 53.19,34.31 90.89,34.31 41.08,0 75.41,-16.06 102.8,-47.99 27.39,-31.93 41.08,-71.79 41.08,-119.79 0,-36.49 -11.51,-66.04 -34.33,-88.65 -23.02,-22.61 -52.79,-33.91 -89.7,-33.91 -41.88,0 -76.61,15.67 -103.99,47 -27.39,31.34 -41.08,70.8 -41.08,118.4zm229.01 193.96c-28.38,32.92 -59.93,57.91 -94.66,74.76 -34.53,16.86 -71.84,25.19 -111.93,25.19 -67.47,0 -122.64,-25.38 -165.9,-76.15 -43.26,-50.77 -64.9,-116.62 -64.9,-197.53 0,-101.54 29.38,-185.83 87.92,-252.86 58.54,-67.03 131.57,-100.55 219.09,-100.55 40.68,0 77.2,8.53 109.35,25.38 32.14,16.86 61.32,43.04 87.32,78.54l13.29 -84.88 196.27 0 -92.88 586.63 -192.89 0 9.92 -78.53zm487.4 -822.24l208.77 0 -144.27 900.77 -208.18 0 143.68 -900.77zm677.91 537.85c-1.98,-31.74 -12.5,-56.92 -31.95,-75.57 -19.45,-18.64 -45.05,-27.96 -76.8,-27.96 -28.77,0 -54.38,9.12 -77,27.37 -22.82,18.24 -39.89,43.63 -51.6,76.16l237.35 0zm-251.24 118.99l0 13.29c0,37.28 9.53,65.64 28.58,84.88 18.85,19.43 46.64,29.15 83.15,29.15 25.6,0 49.61,-5.36 72.43,-16.06 22.63,-10.71 47.04,-27.97 72.84,-51.77l112.12 113.05c-33.34,31.73 -71.84,55.53 -115.5,71.39 -43.66,15.87 -92.48,23.8 -146.26,23.8 -95.85,0 -170.27,-25.38 -223.25,-76.35 -52.99,-50.97 -79.39,-122.37 -79.39,-214.19 0,-100.35 31.56,-182.06 94.47,-244.73 62.91,-62.86 144.47,-94.2 244.49,-94.2 90.69,0 163.52,27.76 218.89,83.1 55.17,55.53 82.76,128.9 82.76,220.53 0,8.13 -1.19,22.81 -3.38,44.23 -0.79,6.54 -1.39,11.1 -1.78,13.88l-440.17 0zm503.87 243.93l93.07 -586.63 198.85 0 -14.48 99.75c18.06,-37.28 42.47,-65.44 73.22,-84.88 30.57,-19.43 66.29,-29.15 106.97,-29.15 4.17,0 9.13,0.2 14.49,0.79 5.36,0.6 13.89,1.99 25.6,3.97l-41.28 184.24c-13.49,-3.17 -25.8,-5.35 -36.71,-6.94 -10.72,-1.59 -21.24,-2.38 -31.36,-2.38 -39.89,0 -71.44,12.49 -94.46,37.48 -23.02,24.99 -38.9,63.66 -47.43,115.82l-41.87 267.93 -204.61 0zm614.41 -761.75c0,-30.34 10.71,-56.32 32.35,-77.94 21.43,-21.61 47.43,-32.52 78.19,-32.52 32.14,0 58.74,10.51 80.17,31.33 21.24,21.02 31.95,47.2 31.95,79.13 0,31.34 -10.91,57.91 -32.55,79.53 -21.63,21.62 -48.22,32.52 -79.57,32.52 -30.76,0 -56.76,-10.9 -78.19,-32.92 -21.64,-21.81 -32.35,-48.19 -32.35,-79.13zm-108.36 761.75l92.68 -586.63 208.57 0 -92.87 586.63 -208.38 0zm377.46 -96.38c0,-32.13 11.31,-59.5 34.13,-82.3 22.63,-22.81 50.21,-34.31 82.96,-34.31 32.94,0 60.72,11.3 83.35,33.71 22.82,22.41 34.13,49.98 34.13,82.9 0,33.32 -11.31,61.28 -33.74,83.89 -22.62,22.61 -50.01,33.91 -82.75,33.91 -32.55,0 -60.33,-11.7 -83.35,-34.9 -23.22,-23.21 -34.73,-50.77 -34.73,-82.9z"/>
 </g>
</svg>
