<?xml version="1.0" encoding="UTF-8"?>
<!DOCTYPE svg PUBLIC "-//W3C//DTD SVG 1.1//EN" "http://www.w3.org/Graphics/SVG/1.1/DTD/svg11.dtd">
<!-- Creator: CorelDRAW 2018 (64-Bit) -->
<svg xmlns="http://www.w3.org/2000/svg" xml:space="preserve" width="4000px" height="2000px" version="1.1" style="shape-rendering:geometricPrecision; text-rendering:geometricPrecision; image-rendering:optimizeQuality; fill-rule:evenodd; clip-rule:evenodd"
viewBox="0 0 4000 2000"
 xmlns:xlink="http://www.w3.org/1999/xlink">
 <defs>
  <style type="text/css">
   <![CDATA[
    .str0 {stroke:white;stroke-width:0.9;stroke-miterlimit:22.9256}
    .fil0 {fill:none;fill-rule:nonzero}
    .fil1 {fill:white;fill-rule:nonzero}
   ]]>
  </style>
 </defs>
 <g id="Layer_x0020_1">
  <metadata id="CorelCorpID_0Corel-Layer"/>
  <path class="fil0 str0" d="M412.99 1531.33l-271.28 0 0 -1059.92 302.41 0c118.1,0 201.11,5.68 249.05,17.29 47.68,11.62 88.2,31.38 121.55,59.3 39.04,32.37 68.93,72.89 89.44,121.31 20.51,48.67 30.64,102.53 30.64,161.83 0,63.25 -10.13,118.84 -30.39,166.77 -20.26,48.18 -50.16,87.46 -89.69,118.35 -29.89,23.22 -65.22,39.78 -105.74,49.91 -40.52,10.13 -105.5,15.31 -194.69,15.31l-49.17 0 -52.13 0 0 349.85zm0 -582.58l55.1 0c69.42,0 117.85,-9.64 145.27,-28.66 27.43,-19.03 41.26,-51.39 41.26,-97.35 0,-44.47 -13.59,-76.1 -40.52,-94.87 -26.93,-18.78 -74.86,-28.17 -143.3,-28.17l-57.81 0 0 249.05z"/>
  <path id="1" class="fil0 str0" d="M1065 1531.33l0 -730.83 243.37 0 0 172.21c25.2,-63 59.29,-109.94 102.78,-141.32 43.48,-31.38 96.11,-47.19 157.87,-47.19 10.13,0 20.51,0.24 30.89,0.99 10.37,0.74 20.75,1.97 31.38,3.45l-25.21 234.23c-15.31,-5.19 -30.63,-8.9 -45.46,-11.37 -15.07,-2.22 -29.4,-3.46 -43.48,-3.46 -62.51,0 -110.69,19.27 -144.78,57.57 -33.85,38.29 -50.9,92.65 -50.9,163.07l0 302.65 -256.46 0z"/>
  <path id="2" class="fil0 str0" d="M2244.76 1167.65c0,-54.36 -13.84,-97.35 -41.26,-128.72 -27.43,-31.38 -64.73,-47.19 -111.43,-47.19 -47.19,0 -84.5,15.81 -111.92,47.19 -27.18,31.37 -40.77,74.36 -40.77,128.72 0,54.6 13.59,97.59 40.52,128.72 26.93,31.13 64.48,46.7 112.17,46.7 47.19,0 84.5,-15.57 111.92,-46.7 27.18,-31.13 40.77,-74.12 40.77,-128.72zm256.46 0c0,52.62 -10.38,102.78 -30.89,149.97 -20.5,47.44 -50.15,89.93 -89.44,127.49 -39.53,37.55 -83.75,66.21 -132.67,85.48 -49.17,19.27 -101.05,28.91 -156.15,28.91 -56.09,0 -108.46,-9.64 -157.38,-28.91 -49.17,-19.27 -92.9,-47.93 -131.44,-85.48 -38.79,-36.82 -68.19,-78.82 -88.45,-126.26 -20.26,-47.68 -30.39,-98.08 -30.39,-151.2 0,-53.37 10.13,-103.77 30.14,-151.21 20.01,-47.19 49.41,-89.68 88.7,-127.49 38.04,-37.05 81.53,-65.22 130.7,-84 48.91,-18.78 101.54,-28.16 158.12,-28.16 56.58,0 109.2,9.38 157.88,28.16 48.67,18.78 92.4,46.95 130.94,84 39.78,38.3 69.68,81.04 89.94,128.23 20.25,47.19 30.39,97.6 30.39,150.47z"/>
  <path id="3" class="fil0 str0" d="M3154.96 572.21c0,-39.03 13.84,-72.14 41.51,-99.57 27.67,-27.42 61.27,-41.26 100.8,-41.26 40.03,0 73.63,13.59 101.05,40.52 27.43,26.93 41.26,60.29 41.26,100.31 0,40.03 -13.83,73.88 -41.51,101.8 -27.67,27.91 -61.27,42 -100.8,42 -38.54,0 -71.9,-14.33 -100.06,-42.75 -28.17,-28.41 -42.25,-62.01 -42.25,-101.05zm13.34 959.12l0 -730.83 257.94 0 0 730.83 -257.94 0zm-493.64 0l0 -548.49 -109.95 0 0 -182.34 109.95 0 0 -150.21c0,-84.75 23.22,-148.74 69.42,-191.73 46.45,-42.74 115.88,-64.24 208.04,-64.24 13.09,0 28.66,1.24 46.69,3.71 18.04,2.47 37.56,5.68 58.31,10.13l0 196.67c-11.61,-4.45 -22.24,-7.91 -32.12,-10.13 -10.13,-2.23 -19.02,-3.22 -27.18,-3.22 -24.21,0 -42,7.17 -53.12,21.75 -11.11,14.57 -16.55,37.8 -16.55,70.16l0 117.11 128.97 0 0 182.34 -128.97 0 0 548.49 -253.49 0z"/>
  <polygon id="4" class="fil0 str0" points="3631.06,1531.33 3631.06,409.15 3889,409.15 3889,1531.33 "/>
  <path class="fil1" d="M366.75 1425.19l-271.28 0 0 -1059.92 302.41 0c118.1,0 201.11,5.68 249.04,17.29 47.69,11.62 88.21,31.38 121.56,59.3 39.04,32.37 68.93,72.88 89.44,121.31 20.51,48.67 30.64,102.53 30.64,161.83 0,63.25 -10.13,118.84 -30.39,166.77 -20.26,48.18 -50.16,87.46 -89.69,118.35 -29.89,23.22 -65.22,39.78 -105.74,49.91 -40.52,10.12 -105.5,15.31 -194.69,15.31l-49.17 0 -52.13 0 0 349.85zm0 -582.59l55.09 0c69.43,0 117.86,-9.63 145.28,-28.65 27.43,-19.03 41.26,-51.4 41.26,-97.35 0,-44.47 -13.59,-76.1 -40.52,-94.87 -26.93,-18.78 -74.86,-28.17 -143.3,-28.17l-57.81 0 0 249.04z"/>
  <path id="1" class="fil1" d="M1018.76 1425.19l0 -730.83 243.37 0 0 172.21c25.2,-63 59.29,-109.95 102.78,-141.32 43.48,-31.38 96.11,-47.19 157.87,-47.19 10.13,0 20.51,0.24 30.89,0.99 10.37,0.74 20.75,1.97 31.37,3.45l-25.2 234.23c-15.32,-5.19 -30.63,-8.9 -45.46,-11.37 -15.07,-2.22 -29.4,-3.46 -43.48,-3.46 -62.51,0 -110.69,19.27 -144.78,57.57 -33.85,38.29 -50.9,92.65 -50.9,163.06l0 302.66 -256.46 0z"/>
  <path id="2" class="fil1" d="M2198.52 1061.51c0,-54.36 -13.84,-97.35 -41.26,-128.72 -27.43,-31.38 -64.74,-47.2 -111.43,-47.2 -47.19,0 -84.5,15.82 -111.92,47.2 -27.18,31.37 -40.77,74.36 -40.77,128.72 0,54.6 13.59,97.59 40.52,128.72 26.93,31.13 64.48,46.7 112.17,46.7 47.19,0 84.5,-15.57 111.92,-46.7 27.18,-31.13 40.77,-74.12 40.77,-128.72zm256.45 0c0,52.62 -10.37,102.78 -30.88,149.97 -20.51,47.44 -50.16,89.93 -89.44,127.49 -39.53,37.55 -83.76,66.21 -132.67,85.48 -49.17,19.27 -101.06,28.91 -156.15,28.91 -56.09,0 -108.47,-9.64 -157.39,-28.91 -49.16,-19.27 -92.89,-47.93 -131.44,-85.48 -38.79,-36.82 -68.19,-78.82 -88.45,-126.26 -20.26,-47.68 -30.39,-98.08 -30.39,-151.2 0,-53.37 10.13,-103.77 30.15,-151.21 20.01,-47.19 49.41,-89.68 88.69,-127.49 38.05,-37.06 81.54,-65.22 130.7,-84 48.92,-18.78 101.55,-28.17 158.13,-28.17 56.58,0 109.2,9.39 157.87,28.17 48.68,18.78 92.41,46.94 130.95,84 39.78,38.3 69.67,81.04 89.93,128.23 20.26,47.19 30.39,97.59 30.39,150.47z"/>
  <path id="3" class="fil1" d="M3108.72 466.07c0,-39.04 13.83,-72.14 41.51,-99.57 27.67,-27.42 61.27,-41.26 100.8,-41.26 40.02,0 73.63,13.59 101.05,40.52 27.43,26.93 41.26,60.29 41.26,100.31 0,40.03 -13.83,73.88 -41.51,101.79 -27.67,27.92 -61.27,42.01 -100.8,42.01 -38.54,0 -71.9,-14.33 -100.06,-42.75 -28.17,-28.41 -42.25,-62.01 -42.25,-101.05zm13.34 959.12l0 -730.83 257.94 0 0 730.83 -257.94 0zm-493.64 0l0 -548.49 -109.95 0 0 -182.34 109.95 0 0 -150.21c0,-84.75 23.22,-148.74 69.42,-191.73 46.45,-42.74 115.88,-64.24 208.03,-64.24 13.1,0 28.66,1.24 46.7,3.71 18.04,2.47 37.55,5.68 58.31,10.13l0 196.67c-11.61,-4.45 -22.24,-7.91 -32.12,-10.14 -10.13,-2.22 -19.02,-3.21 -27.18,-3.21 -24.21,0 -42,7.17 -53.12,21.75 -11.12,14.57 -16.55,37.8 -16.55,70.16l0 117.11 128.97 0 0 182.34 -128.97 0 0 548.49 -253.49 0z"/>
  <polygon id="4" class="fil1" points="3584.82,1425.19 3584.82,303.01 3842.76,303.01 3842.76,1425.19 "/>
 </g>
</svg>
