<?xml version="1.0" encoding="UTF-8"?>
<!DOCTYPE svg PUBLIC "-//W3C//DTD SVG 1.1//EN" "http://www.w3.org/Graphics/SVG/1.1/DTD/svg11.dtd">
<!-- Creator: CorelDRAW 2018 (64-Bit) -->
<svg xmlns="http://www.w3.org/2000/svg" xml:space="preserve" width="4000px" height="2000px" version="1.1" style="shape-rendering:geometricPrecision; text-rendering:geometricPrecision; image-rendering:optimizeQuality; fill-rule:evenodd; clip-rule:evenodd"
viewBox="0 0 4000 2000"
 xmlns:xlink="http://www.w3.org/1999/xlink">
 <defs>
  <style type="text/css">
   <![CDATA[
    .str0 {stroke:white;stroke-width:12;stroke-miterlimit:22.9256}
    .fil0 {fill:none;fill-rule:nonzero}
    .fil1 {fill:white;fill-rule:nonzero}
   ]]>
  </style>
 </defs>
 <g id="Layer_x0020_1">
  <metadata id="CorelCorpID_0Corel-Layer"/>
  <path class="fil0 str0" d="M383.24 1526.48l-275.32 0 0 -1075.71 306.92 0c119.85,0 204.11,5.77 252.75,17.56 48.39,11.78 89.52,31.84 123.37,60.18 39.62,32.84 69.96,73.97 90.77,123.11 20.81,49.4 31.09,104.06 31.09,164.24 0,64.19 -10.28,120.61 -30.84,169.26 -20.56,48.89 -50.9,88.76 -91.02,120.1 -30.34,23.57 -66.2,40.37 -107.32,50.65 -41.12,10.29 -107.07,15.55 -197.59,15.55l-49.9 0 -52.91 0 0 355.06zm0 -591.26l55.92 0c70.46,0 119.61,-9.78 147.44,-29.09 27.83,-19.31 41.87,-52.15 41.87,-98.79 0,-45.14 -13.79,-77.23 -41.12,-96.29 -27.33,-19.06 -75.98,-28.59 -145.43,-28.59l-58.68 0 0 252.76z"/>
  <path id="1" class="fil0 str0" d="M1044.96 1526.48l0 -741.71 246.99 0 0 174.77c25.57,-63.94 60.18,-111.58 104.31,-143.43 44.13,-31.84 97.54,-47.89 160.23,-47.89 10.28,0 20.81,0.25 31.34,1 10.53,0.75 21.06,2.01 31.84,3.51l-25.57 237.71c-15.55,-5.26 -31.09,-9.03 -46.14,-11.53 -15.29,-2.26 -29.84,-3.51 -44.13,-3.51 -63.44,0 -112.33,19.55 -146.94,58.42 -34.35,38.87 -51.65,94.03 -51.65,165.49l0 307.17 -260.28 0z"/>
  <path id="2" class="fil0 str0" d="M2242.28 1157.38c0,-55.17 -14.04,-98.8 -41.88,-130.64 -27.83,-31.85 -65.69,-47.89 -113.08,-47.89 -47.89,0 -85.76,16.04 -113.59,47.89 -27.58,31.84 -41.37,75.47 -41.37,130.64 0,55.41 13.79,99.04 41.12,130.64 27.33,31.59 65.44,47.39 113.84,47.39 47.89,0 85.75,-15.8 113.59,-47.39 27.58,-31.6 41.37,-75.23 41.37,-130.64zm260.27 0c0,53.41 -10.53,104.31 -31.34,152.2 -20.81,48.15 -50.9,91.27 -90.77,129.39 -40.12,38.11 -85,67.2 -134.65,86.76 -49.9,19.55 -102.56,29.33 -158.47,29.33 -56.92,0 -110.08,-9.78 -159.73,-29.33 -49.9,-19.56 -94.28,-48.65 -133.4,-86.76 -39.36,-37.36 -69.2,-79.99 -89.76,-128.13 -20.56,-48.4 -30.84,-99.55 -30.84,-153.46 0,-54.16 10.28,-105.31 30.59,-153.46 20.31,-47.89 50.15,-91.02 90.01,-129.38 38.62,-37.62 82.75,-66.2 132.65,-85.26 49.65,-19.05 103.06,-28.58 160.48,-28.58 57.42,0 110.83,9.53 160.22,28.58 49.4,19.06 93.78,47.64 132.9,85.26 40.37,38.86 70.71,82.24 91.27,130.13 20.56,47.9 30.84,99.05 30.84,152.71z"/>
  <path id="3" class="fil0 str0" d="M3166.03 553.08c0,-39.62 14.04,-73.22 42.12,-101.05 28.09,-27.83 62.19,-41.88 102.31,-41.88 40.62,0 74.72,13.79 102.56,41.13 27.83,27.33 41.87,61.18 41.87,101.8 0,40.62 -14.04,74.97 -42.13,103.31 -28.08,28.33 -62.18,42.62 -102.3,42.62 -39.12,0 -72.97,-14.54 -101.55,-43.38 -28.59,-28.83 -42.88,-62.93 -42.88,-102.55zm13.54 973.4l0 -741.71 261.78 0 0 741.71 -261.78 0zm-500.99 0l0 -556.66 -111.58 0 0 -185.05 111.58 0 0 -152.45c0,-86.01 23.57,-150.95 70.46,-194.58 47.14,-43.38 117.6,-65.2 211.13,-65.2 13.29,0 29.08,1.26 47.39,3.76 18.3,2.51 38.11,5.77 59.17,10.28l0 199.6c-11.78,-4.52 -22.56,-8.03 -32.59,-10.28 -10.28,-2.26 -19.31,-3.26 -27.59,-3.26 -24.57,0 -42.62,7.27 -53.91,22.06 -11.28,14.8 -16.8,38.37 -16.8,71.22l0 118.85 130.89 0 0 185.05 -130.89 0 0 556.66 -257.26 0z"/>
  <polygon id="4" class="fil0 str0" points="3649.22,1526.48 3649.22,387.59 3911,387.59 3911,1526.48 "/>
  <path class="fil1" d="M336.31 1418.76l-275.32 0 0 -1075.71 306.92 0c119.85,0 204.11,5.77 252.75,17.56 48.39,11.78 89.52,31.84 123.37,60.18 39.62,32.84 69.96,73.97 90.77,123.11 20.81,49.4 31.09,104.06 31.09,164.24 0,64.19 -10.28,120.61 -30.84,169.26 -20.56,48.89 -50.9,88.76 -91.02,120.1 -30.34,23.57 -66.2,40.37 -107.32,50.65 -41.12,10.29 -107.07,15.55 -197.59,15.55l-49.9 0 -52.91 0 0 355.06zm0 -591.26l55.92 0c70.46,0 119.61,-9.78 147.44,-29.09 27.83,-19.31 41.87,-52.15 41.87,-98.79 0,-45.14 -13.79,-77.23 -41.12,-96.29 -27.33,-19.06 -75.98,-28.59 -145.43,-28.59l-58.68 0 0 252.76z"/>
  <path id="1" class="fil1" d="M998.03 1418.76l0 -741.71 246.99 0 0 174.77c25.57,-63.94 60.18,-111.58 104.31,-143.43 44.13,-31.84 97.54,-47.89 160.23,-47.89 10.28,0 20.81,0.25 31.34,1 10.53,0.75 21.06,2.01 31.84,3.51l-25.57 237.71c-15.55,-5.26 -31.09,-9.03 -46.14,-11.53 -15.29,-2.26 -29.84,-3.51 -44.13,-3.51 -63.44,0 -112.33,19.55 -146.94,58.42 -34.35,38.87 -51.65,94.03 -51.65,165.49l0 307.17 -260.28 0z"/>
  <path id="2" class="fil1" d="M2195.35 1049.66c0,-55.17 -14.04,-98.8 -41.88,-130.64 -27.83,-31.85 -65.69,-47.89 -113.08,-47.89 -47.89,0 -85.76,16.04 -113.59,47.89 -27.58,31.84 -41.37,75.47 -41.37,130.64 0,55.41 13.79,99.04 41.12,130.64 27.33,31.59 65.44,47.39 113.84,47.39 47.89,0 85.75,-15.8 113.59,-47.39 27.58,-31.6 41.37,-75.23 41.37,-130.64zm260.27 0c0,53.41 -10.53,104.31 -31.34,152.2 -20.81,48.15 -50.9,91.27 -90.77,129.39 -40.12,38.11 -85,67.2 -134.65,86.76 -49.9,19.55 -102.56,29.33 -158.47,29.33 -56.92,0 -110.08,-9.78 -159.73,-29.33 -49.9,-19.56 -94.28,-48.65 -133.4,-86.76 -39.36,-37.36 -69.2,-79.99 -89.76,-128.13 -20.56,-48.4 -30.84,-99.55 -30.84,-153.46 0,-54.16 10.28,-105.31 30.59,-153.46 20.31,-47.89 50.15,-91.02 90.01,-129.38 38.62,-37.62 82.75,-66.2 132.65,-85.26 49.65,-19.05 103.06,-28.58 160.48,-28.58 57.42,0 110.83,9.53 160.23,28.58 49.39,19.06 93.77,47.64 132.89,85.26 40.37,38.86 70.71,82.24 91.27,130.13 20.56,47.9 30.84,99.05 30.84,152.71z"/>
  <path id="3" class="fil1" d="M3119.1 445.36c0,-39.62 14.04,-73.22 42.12,-101.05 28.09,-27.83 62.19,-41.88 102.31,-41.88 40.62,0 74.72,13.79 102.56,41.13 27.83,27.33 41.87,61.18 41.87,101.8 0,40.62 -14.04,74.97 -42.13,103.31 -28.08,28.33 -62.18,42.62 -102.3,42.62 -39.12,0 -72.97,-14.54 -101.55,-43.38 -28.59,-28.83 -42.88,-62.93 -42.88,-102.55zm13.54 973.4l0 -741.71 261.78 0 0 741.71 -261.78 0zm-500.99 0l0 -556.66 -111.58 0 0 -185.05 111.58 0 0 -152.46c0,-86 23.57,-150.94 70.46,-194.57 47.14,-43.38 117.6,-65.2 211.13,-65.2 13.29,0 29.08,1.26 47.39,3.76 18.3,2.51 38.11,5.77 59.17,10.28l0 199.6c-11.78,-4.52 -22.56,-8.03 -32.59,-10.28 -10.28,-2.26 -19.31,-3.26 -27.59,-3.26 -24.57,0 -42.62,7.27 -53.91,22.06 -11.28,14.8 -16.8,38.37 -16.8,71.21l0 118.86 130.89 0 0 185.05 -130.89 0 0 556.66 -257.26 0z"/>
  <polygon id="4" class="fil1" points="3602.29,1418.76 3602.29,279.87 3864.07,279.87 3864.07,1418.76 "/>
 </g>
</svg>
