<?xml version="1.0" encoding="UTF-8"?>
<!DOCTYPE svg PUBLIC "-//W3C//DTD SVG 1.1//EN" "http://www.w3.org/Graphics/SVG/1.1/DTD/svg11.dtd">
<!-- Creator: CorelDRAW 2018 (64-Bit) -->
<svg xmlns="http://www.w3.org/2000/svg" xml:space="preserve" width="4000px" height="2000px" version="1.1" style="shape-rendering:geometricPrecision; text-rendering:geometricPrecision; image-rendering:optimizeQuality; fill-rule:evenodd; clip-rule:evenodd"
viewBox="0 0 4000 2000"
 xmlns:xlink="http://www.w3.org/1999/xlink">
 <defs>
  <style type="text/css">
   <![CDATA[
    .str0 {stroke:white;stroke-width:12;stroke-miterlimit:22.9256}
    .fil0 {fill:none;fill-rule:nonzero}
    .fil1 {fill:white;fill-rule:nonzero}
   ]]>
  </style>
 </defs>
 <g id="Layer_x0020_1">
  <metadata id="CorelCorpID_0Corel-Layer"/>
  <polygon class="fil0 str0" points="242.63,1193.1 242.63,662.98 87.29,662.98 87.29,498.89 587.31,498.89 587.31,662.98 431.96,662.98 431.96,1193.1 "/>
  <path id="1" class="fil0 str0" d="M919.04 892.11c-3.24,-27.18 -13.6,-49.03 -31.07,-65.53 -17.64,-16.51 -39.16,-24.76 -64.89,-24.76 -27.51,0 -49.52,7.44 -65.86,22.49 -16.18,15.05 -27.03,37.71 -32.53,67.8l194.35 0zm166.02 95.15l-364.09 0c0.32,36.9 9.87,65.38 28.48,85.44 18.77,20.07 45.15,30.1 79.29,30.1 25.73,0 47.25,-4.85 64.89,-14.4 17.48,-9.71 30.91,-23.95 40.13,-42.88l127.03 51.13c-15.21,36.74 -42.07,65.06 -80.59,84.96 -38.67,19.9 -85.92,29.94 -141.91,29.94 -83.5,0 -150.49,-23.14 -200.82,-69.42 -50.49,-46.45 -75.73,-107.45 -75.73,-183.35 0,-74.59 25.24,-136.57 75.57,-185.93 50.49,-49.35 114.24,-73.95 191.27,-73.95 79.29,0 141.92,24.92 187.71,74.92 45.8,50.01 68.77,118.46 68.77,205.35l0 8.09z"/>
  <path id="2" class="fil0 str0" d="M1181.99 1193.1l0 -478.66 154.7 0 0 97.09c22.33,-39 48.22,-67.48 77.67,-85.6 29.29,-17.97 64.57,-27.03 105.51,-27.03 31.07,0 58.58,5.02 82.69,14.89 24.11,10.03 43.85,24.27 58.9,43.04 12.79,16.02 21.69,35.77 27.03,58.74 5.34,23.14 8.09,57.61 8.09,103.41l0 274.12 -168.94 0 0 -256.49c0,-38.35 -6.31,-66.02 -18.77,-83.49 -12.46,-17.32 -32.37,-26.06 -59.88,-26.06 -35.11,0 -60.68,12.95 -76.86,38.84 -16.02,25.89 -24.11,67.96 -24.11,126.22l0 200.98 -166.03 0z"/>
  <polygon id="3" class="fil0 str0" points="1842.05,1193.1 1842.05,833.86 1770.21,833.86 1770.21,714.44 1842.05,714.44 1842.05,571.71 2008.08,571.71 2008.08,714.44 2079.93,714.44 2079.93,833.86 2008.08,833.86 2008.08,1193.1 "/>
  <path id="4" class="fil0 str0" d="M2523.47 953.28c0,-37.38 -9.87,-66.83 -29.77,-88.68 -19.91,-21.84 -47.09,-32.68 -81.56,-32.68 -34.47,0 -61.49,10.84 -81.23,32.52 -19.74,21.53 -29.61,51.3 -29.61,88.84 0,37.22 9.87,66.67 29.77,88.19 19.9,21.53 46.93,32.21 81.07,32.21 34.47,0 61.65,-10.68 81.56,-32.21 19.9,-21.52 29.77,-50.97 29.77,-88.19zm148.71 -238.84l0 478.66 -155.34 0 0 -77.67c-22.17,33.17 -46.93,57.44 -74.6,72.98 -27.67,15.37 -60.2,23.14 -97.42,23.14 -63.91,0 -114.89,-23.31 -153.24,-69.91 -38.19,-46.6 -57.28,-109.23 -57.28,-187.55 0,-78.16 20.06,-140.13 60.03,-186.25 39.97,-45.96 93.7,-68.94 161.34,-68.94 36.08,0 67.15,7.77 93.2,23.14 26.06,15.38 48.39,39 67,71.04l0 -78.64 156.31 0z"/>
  <path id="5" class="fil0 str0" d="M2799.54 1193.1l0 -478.66 154.7 0 0 97.09c22.33,-39 48.22,-67.48 77.67,-85.6 29.29,-17.97 64.56,-27.03 105.5,-27.03 31.07,0 58.58,5.02 82.69,14.89 24.11,10.03 43.86,24.27 58.91,43.04 12.78,16.02 21.68,35.77 27.02,58.74 5.34,23.14 8.09,57.61 8.09,103.41l0 274.12 -168.94 0 0 -256.49c0,-38.35 -6.31,-66.02 -18.77,-83.49 -12.46,-17.32 -32.36,-26.06 -59.87,-26.06 -35.12,0 -60.68,12.95 -76.87,38.84 -16.02,25.89 -24.11,67.96 -24.11,126.22l0 200.98 -166.02 0z"/>
  <path id="6" class="fil0 str0" d="M3798.28 952.31c0,-36.89 -9.87,-65.86 -29.61,-86.9 -19.74,-21.03 -46.93,-31.55 -81.72,-31.55 -35.11,0 -62.62,10.52 -82.69,31.55 -20.06,21.04 -30.09,50.01 -30.09,86.9 0,36.57 10.03,65.54 30.09,86.74 20.07,21.19 47.58,31.71 82.69,31.71 34.47,0 61.66,-10.52 81.56,-31.71 19.74,-21.2 29.77,-50.17 29.77,-86.74zm148.72 -237.87l0 477.85c0,72.49 -22.01,125.89 -66.19,160.52 -44.01,34.63 -112.3,51.95 -204.54,51.95 -74.76,0 -133.17,-13.92 -175.57,-41.59 -42.4,-27.67 -64.73,-66.99 -67.32,-117.64l174.77 0c2.59,14.88 10.84,26.54 24.92,34.95 14.08,8.41 32.68,12.62 55.66,12.62 36.41,0 61.49,-8.74 75.09,-26.21 13.75,-17.64 20.71,-54.37 20.71,-110.69l0 -43.69c-17.64,30.1 -40.29,52.59 -67.8,67.32 -27.51,14.72 -60.2,22.01 -98.07,22.01 -63.27,0 -113.92,-22.82 -152.27,-68.62 -38.19,-45.63 -57.28,-106.63 -57.28,-182.85 0,-76.87 20.06,-138.03 60.03,-183.34 39.97,-45.47 93.7,-68.13 161.34,-68.13 35.76,0 66.51,7.45 92.72,22.33 26.05,14.89 48.55,38.19 67.48,69.91l0 -76.7 156.32 0z"/>
  <polygon class="fil1" points="212.35,1123.58 212.35,593.46 57,593.46 57,429.38 557.02,429.38 557.02,593.46 401.67,593.46 401.67,1123.58 "/>
  <path id="1" class="fil1" d="M888.75 822.6c-3.24,-27.19 -13.59,-49.03 -31.07,-65.54 -17.64,-16.51 -39.16,-24.76 -64.89,-24.76 -27.51,0 -49.52,7.45 -65.86,22.49 -16.18,15.05 -27.02,37.71 -32.52,67.81l194.34 0zm166.03 95.15l-364.1 0c0.33,36.89 9.88,65.37 28.48,85.44 18.78,20.06 45.15,30.1 79.3,30.1 25.73,0 47.25,-4.86 64.88,-14.41 17.48,-9.71 30.91,-23.95 40.14,-42.88l127.02 51.14c-15.21,36.73 -42.07,65.05 -80.58,84.95 -38.68,19.9 -85.93,29.94 -141.92,29.94 -83.5,0 -150.49,-23.14 -200.81,-69.42 -50.49,-46.44 -75.74,-107.45 -75.74,-183.34 0,-74.6 25.25,-136.58 75.57,-185.93 50.49,-49.36 114.25,-73.96 191.27,-73.96 79.3,0 141.92,24.92 187.71,74.93 45.8,50 68.78,118.45 68.78,205.35l0 8.09z"/>
  <path id="2" class="fil1" d="M1151.71 1123.58l0 -478.66 154.7 0 0 97.09c22.33,-39 48.22,-67.48 77.67,-85.6 29.29,-17.96 64.56,-27.03 105.51,-27.03 31.06,0 58.57,5.02 82.68,14.89 24.12,10.03 43.86,24.28 58.91,43.05 12.78,16.02 21.68,35.76 27.02,58.74 5.34,23.14 8.09,57.6 8.09,103.4l0 274.12 -168.94 0 0 -256.48c0,-38.35 -6.31,-66.03 -18.77,-83.5 -12.46,-17.32 -32.36,-26.05 -59.87,-26.05 -35.12,0 -60.68,12.94 -76.87,38.83 -16.02,25.89 -24.11,67.97 -24.11,126.22l0 200.98 -166.02 0z"/>
  <polygon id="3" class="fil1" points="1811.77,1123.58 1811.77,764.34 1739.92,764.34 1739.92,644.92 1811.77,644.92 1811.77,502.2 1977.79,502.2 1977.79,644.92 2049.64,644.92 2049.64,764.34 1977.79,764.34 1977.79,1123.58 "/>
  <path id="4" class="fil1" d="M2493.19 883.76c0,-37.38 -9.87,-66.83 -29.78,-88.67 -19.9,-21.85 -47.09,-32.69 -81.55,-32.69 -34.47,0 -61.5,10.84 -81.24,32.53 -19.74,21.52 -29.61,51.29 -29.61,88.83 0,37.22 9.87,66.67 29.77,88.2 19.91,21.52 46.93,32.2 81.08,32.2 34.46,0 61.65,-10.68 81.55,-32.2 19.91,-21.53 29.78,-50.98 29.78,-88.2zm148.71 -238.84l0 478.66 -155.35 0 0 -77.67c-22.17,33.17 -46.92,57.44 -74.6,72.98 -27.67,15.37 -60.19,23.14 -97.41,23.14 -63.92,0 -114.89,-23.3 -153.24,-69.91 -38.19,-46.6 -57.29,-109.23 -57.29,-187.55 0,-78.15 20.07,-140.13 60.04,-186.25 39.97,-45.96 93.69,-68.94 161.33,-68.94 36.09,0 67.16,7.77 93.21,23.14 26.05,15.38 48.38,39 66.99,71.04l0 -78.64 156.32 0z"/>
  <path id="5" class="fil1" d="M2769.25 1123.58l0 -478.66 154.7 0 0 97.09c22.33,-39 48.22,-67.48 77.67,-85.6 29.29,-17.96 64.57,-27.03 105.51,-27.03 31.07,0 58.58,5.02 82.69,14.89 24.11,10.03 43.85,24.28 58.9,43.05 12.78,16.02 21.68,35.76 27.02,58.74 5.34,23.14 8.09,57.6 8.09,103.4l0 274.12 -168.93 0 0 -256.48c0,-38.35 -6.31,-66.03 -18.78,-83.5 -12.45,-17.32 -32.36,-26.05 -59.87,-26.05 -35.11,0 -60.68,12.94 -76.86,38.83 -16.02,25.89 -24.11,67.97 -24.11,126.22l0 200.98 -166.03 0z"/>
  <path id="6" class="fil1" d="M3768 882.79c0,-36.89 -9.87,-65.86 -29.61,-86.89 -19.75,-21.04 -46.93,-31.56 -81.72,-31.56 -35.12,0 -62.63,10.52 -82.69,31.56 -20.07,21.03 -30.1,50 -30.1,86.89 0,36.57 10.03,65.54 30.1,86.74 20.06,21.2 47.57,31.72 82.69,31.72 34.46,0 61.65,-10.52 81.55,-31.72 19.75,-21.2 29.78,-50.17 29.78,-86.74zm148.71 -237.87l0 477.85c0,72.5 -22.01,125.9 -66.18,160.53 -44.02,34.63 -112.31,51.94 -204.54,51.94 -74.76,0 -133.18,-13.92 -175.58,-41.59 -42.39,-27.67 -64.72,-66.99 -67.31,-117.64l174.76 0c2.59,14.89 10.84,26.54 24.92,34.95 14.08,8.42 32.69,12.62 55.67,12.62 36.41,0 61.49,-8.73 75.08,-26.21 13.76,-17.64 20.71,-54.37 20.71,-110.68l0 -43.69c-17.63,30.09 -40.29,52.59 -67.8,67.31 -27.51,14.73 -60.2,22.01 -98.06,22.01 -63.27,0 -113.92,-22.82 -152.27,-68.61 -38.19,-45.63 -57.29,-106.64 -57.29,-182.86 0,-76.86 20.07,-138.03 60.04,-183.34 39.97,-45.47 93.69,-68.13 161.33,-68.13 35.76,0 66.51,7.45 92.72,22.34 26.06,14.88 48.55,38.19 67.48,69.9l0 -76.7 156.32 0z"/>
 </g>
</svg>
